<svg xmlns="http://www.w3.org/2000/svg" width="304" height="163" viewBox="0 0 304 163">
    <g fill="none" fill-rule="evenodd">
        <path fill="#02A477" d="M299.772 148.116l-286.017 8.59c-1.98.059-3.643-1.616-3.698-3.724L6.353 13.138C6.297 11.032 7.87 9.26 9.85 9.2L295.865.61c1.98-.059 3.644 1.616 3.7 3.724l3.702 139.842c.057 2.108-1.515 3.88-3.495 3.94"/>
        <path fill="#FFF" d="M290.481 162.1H4.351c-1.98 0-3.6-1.726-3.6-3.834V59.732 18.367c0-2.108 1.62-3.833 3.6-3.833h286.13c1.98 0 3.6 1.725 3.6 3.833v139.9c0 2.107-1.62 3.832-3.6 3.832L3.728 51.666"/>
        <path fill="#02A477" d="M.701 68.08c-.306-11.834-.306-17.835 0-18.005l63.24-35.211c.305-.17 9.705-.17 28.197 0C31.251 50.468.772 68.207.701 68.079zM240.783 162.42c-15.825.169-23.585.169-23.278 0 .459-.255 77.39-52.531 77.088-52.531-.202 0-.202 5.15 0 15.453-35.803 24.846-53.74 37.205-53.81 37.077z"/>
        <text fill="#333" font-family="NanumSquareOTFEB, NanumSquareOTF" font-size="26" font-weight="600" transform="translate(-7)">
            <tspan x="41.577" y="75.811">스타벅스 기프트 카드</tspan>
        </text>
        <text fill="#333" font-family="NanumSquareOTFEB, NanumSquareOTF" font-size="30" font-weight="600" transform="translate(-7)">
            <tspan x="118.431" y="119.798">1만원</tspan>
        </text>
    </g>
</svg>
