<svg xmlns="http://www.w3.org/2000/svg" width="294" height="158" viewBox="0 0 294 158">
    <g fill="none" fill-rule="evenodd">
        <path fill="#EED034" d="M289.94 143.369l-276.85 8.314c-1.917.057-3.526-1.564-3.58-3.604L5.925 12.717c-.054-2.039 1.469-3.755 3.385-3.812L286.158.591c1.916-.058 3.527 1.564 3.581 3.604l3.583 135.36c.056 2.04-1.466 3.756-3.382 3.814"/>
        <path fill="#FFF" d="M280.947 156.904H3.987c-1.916 0-3.484-1.67-3.484-3.71V57.818v-40.04c0-2.04 1.568-3.71 3.484-3.71H280.947c1.916 0 3.484 1.67 3.484 3.71v135.416c0 2.04-1.568 3.71-3.484 3.71L3.384 50.01"/>
        <path fill="#C34F4F" d="M.454 65.897C.158 54.444.158 48.635.454 48.47c.297-.164 20.7-11.525 61.212-34.083.297-.164 9.395-.164 27.295 0C30.025 48.851.523 66.021.454 65.897zM232.841 157.214c-15.318.164-22.829.164-22.532 0 .445-.247 74.91-50.847 74.617-50.847-.195 0-.195 4.986 0 14.958-34.655 24.05-52.016 36.012-52.085 35.889z"/>
        <text fill="#333" font-family="NanumSquareOTFEB, NanumSquareOTF" font-size="26" font-weight="600" transform="translate(-7)">
            <tspan x="75.363" y="73.621">신세계 상품권</tspan>
        </text>
        <text fill="#333" font-family="NanumSquareOTFEB, NanumSquareOTF" font-size="30" font-weight="600" transform="translate(-7)">
            <tspan x="104.162" y="116.247">10만원</tspan>
        </text>
    </g>
</svg>
