<?xml version="1.0" encoding="UTF-8"?>
<svg width="16px" height="25px" viewBox="0 0 16 25" version="1.1" xmlns="http://www.w3.org/2000/svg" xmlns:xlink="http://www.w3.org/1999/xlink">
    <!-- Generator: Sketch 46.2 (44496) - http://www.bohemiancoding.com/sketch -->
    <title>icon/ico-tip@1x</title>
    <desc>Created with Sketch.</desc>
    <defs>
        <path d="M3.75737913,1.40416017 C3.75737913,0.999293138 4.09583536,0.670414707 4.51192107,0.670414707 C4.92774042,0.670414707 5.26613746,0.999293138 5.26613746,1.40416017 C5.26613746,1.63114682 4.9066091,2.09473367 4.51192107,2.47963181 C4.11699628,2.09473367 3.75737913,1.63114682 3.75737913,1.40416017 Z M8.9247558,2.72801158 C8.79042099,2.59692308 8.57224162,2.59692308 8.43769964,2.72801158 L6.60182023,4.51375856 L4.9991844,2.95446414 C5.36880488,2.59570655 5.95533213,1.94189599 5.95533213,1.40416017 C5.95533213,0.630269225 5.30774899,1.78028743e-05 4.51192107,1.78028743e-05 C3.71594518,1.78028743e-05 3.06821406,0.630269225 3.06821406,1.40416017 C3.06821406,2.08473439 4.00746266,2.95152666 4.2567175,3.16931516 C4.26503388,3.17970017 4.26897011,3.19222152 4.27885507,3.20183508 L6.60182023,5.4618803 L8.9247558,3.20183508 C9.05932737,3.07092461 9.05932737,2.85868467 8.9247558,2.72801158 Z" id="path-1"></path>
        <path d="M4.11150332,3.82048496 L3.6242104,3.34633507 L2.42395747,4.51375856 L0.588226039,2.72804125 C0.453654468,2.59695275 0.235386306,2.59695275 0.100814735,2.72804125 C-0.0336088577,2.85868467 -0.0336088577,3.07092461 0.100814735,3.20183508 L2.42395747,5.4618803 L4.11150332,3.82048496 Z" id="path-2"></path>
    </defs>
    <g id="Symbols" stroke="none" stroke-width="1" fill="none" fill-rule="evenodd">
        <g id="icon/ico-tip">
            <g transform="translate(1.000000, 1.000000)">
                <path d="M10.5606178,18.0652451 L10.5606178,16.0254326 C12.3077845,14.8665894 13.4596261,12.8826622 13.4596261,10.629399 C13.4596261,7.05351766 10.5613939,4.15524528 6.98633842,4.15524528 C3.40973055,4.15524528 0.511498391,7.05351766 0.511498391,10.629399 C0.511498391,12.8826622 1.66411616,14.8658132 3.41050672,16.0254326 L3.41050672,18.0652451 L10.5606178,18.0652451 Z" id="Stroke-3" stroke="#333333" stroke-width="1.6" stroke-linecap="round" stroke-linejoin="round"></path>
                <g id="Page-1" transform="translate(2.328521, 7.373649)">
                    <g id="Stroke-1">
                        <use fill="#333333" fill-rule="evenodd" xlink:href="#path-1"></use>
                        <path stroke="#333333" stroke-width="0.1" d="M3.80737913,1.40416017 C3.80737913,1.59545213 4.12134525,2.02915341 4.47701247,2.44383531 C4.90233734,2.02906024 5.21613746,1.59542701 5.21613746,1.40416017 C5.21613746,1.02733882 4.90055129,0.720414707 4.51192107,0.720414707 C4.12305062,0.720414707 3.80737913,1.02731373 3.80737913,1.40416017 Z M8.95967611,2.69222649 L8.95958774,2.69214047 C9.11437797,2.84244651 9.11437797,3.08712714 8.95962269,3.23767221 L6.56695357,5.49771765 L4.24399523,3.23767907 C4.22903732,3.22015746 4.22903732,3.22015746 4.22232264,3.20812382 L4.2223122,3.20810556 C4.21883499,3.20212602 4.21883499,3.20212602 4.22381875,3.20696715 C3.99608422,3.00798221 3.74733402,2.76041157 3.53011223,2.49171658 C3.20664419,2.09159908 3.01821406,1.72196841 3.01821406,1.40416017 C3.01821406,0.60224717 3.68873192,-0.0499821971 4.51192107,-0.0499821971 C5.33495933,-0.0499821971 6.00533213,0.602244514 6.00533213,1.40416017 C6.00533213,1.86844404 5.61436535,2.42704229 5.03405184,2.91862754 L6.56695764,4.47791724 L8.40280691,2.69219961 C8.55676923,2.54218925 8.80592331,2.54218925 8.95967611,2.69222649 Z"></path>
                    </g>
                    <g id="Stroke-3">
                        <use fill="#333333" fill-rule="evenodd" xlink:href="#path-2"></use>
                        <path stroke="#333333" stroke-width="0.1" d="M4.14637209,3.78464966 L4.14636516,3.856327 L2.38909218,5.49771899 L0.0659305713,3.23765539 C-0.0886535659,3.08711127 -0.0886535659,2.84245792 0.0659259386,2.69222544 C0.219912275,2.54222469 0.469128498,2.54222469 0.623089777,2.69220105 L2.38909571,4.47791644 L3.65907917,3.31049977 L4.14637209,3.78464966 Z"></path>
                    </g>
                </g>
                <g id="Group" stroke="#333333" stroke-width="1.6" stroke-linecap="round">
                    <path d="M6.9,7.76173583e-05 L6.9,1.55242478" id="Stroke-5"></path>
                    <path d="M12.8670176,3.78050867 L13.9644663,2.68260702" id="Stroke-7"></path>
                    <path d="M1.10465024,3.78050867 L0.00720152371,2.68260702" id="Stroke-9"></path>
                </g>
                <g id="Group-2" transform="translate(1.000000, 15.500000)" stroke="#333333" stroke-width="1.5" fill="#00C58E" stroke-linecap="round" stroke-linejoin="round">
                    <path d="M8.24228694,6.9887963 L3.72883755,6.9887963 C2.90143652,6.9887963 2.22461315,6.29032018 2.22461315,5.43644914 C2.22461315,4.5825781 2.90143652,3.88410197 3.72883755,3.88410197 L8.24228694,3.88410197 C9.06891181,3.88410197 9.74651134,4.5825781 9.74651134,5.43644914 C9.74651134,6.29032018 9.06891181,6.9887963 8.24228694,6.9887963 Z" id="Stroke-1"></path>
                    <path d="M10.1229555,3.88937995 L1.84816896,3.88937995 C1.02076792,3.88937995 0.343944559,3.10269318 0.343944559,2.14298939 C0.343944559,1.18238447 1.02076792,0.396598828 1.84816896,0.396598828 L10.1229555,0.396598828 C10.9495804,0.396598828 11.6271799,1.18238447 11.6271799,2.14298939 C11.6271799,3.10269318 10.9495804,3.88937995 10.1229555,3.88937995 Z" id="Stroke-17"></path>
                </g>
            </g>
        </g>
    </g>
</svg>