<?xml version="1.0" encoding="UTF-8"?>
<svg width="114px" height="114px" viewBox="0 0 114 114" version="1.1" xmlns="http://www.w3.org/2000/svg" xmlns:xlink="http://www.w3.org/1999/xlink">
    <!-- Generator: Sketch 46.2 (44496) - http://www.bohemiancoding.com/sketch -->
    <title>ico-profile</title>
    <desc>Created with Sketch.</desc>
    <defs></defs>
    <g id="위킨" stroke="none" stroke-width="1" fill="none" fill-rule="evenodd">
        <g id="208_회원가입" transform="translate(-130.000000, -195.000000)" stroke="#FFFFFF" stroke-width="3">
            <g id="ico-profile" transform="translate(132.000000, 197.000000)">
                <path d="M55,0 C85.3754,0 110,24.6246 110,55 C110,85.3754 85.3754,110 55,110 C24.6246,110 0,85.3754 0,55 C0,24.6246 24.6246,0 55,0 Z" id="Stroke-1"></path>
                <path d="M21.15938,97.70024 C21.15938,79.01014 36.31408,63.86424 54.99318,63.86424 C73.68878,63.86424 88.83908,79.01014 88.83908,97.70024" id="Stroke-3" stroke-linecap="round"></path>
                <path d="M72.09829,37.9753 C72.09829,47.4177 64.44119,55.0715 54.99769,55.0715 C45.55859,55.0715 37.90149,47.4177 37.90149,37.9753 C37.90149,28.5318 45.55859,20.8802 54.99769,20.8802 C64.44119,20.8813 72.09829,28.5329 72.09829,37.9753 Z" id="Stroke-5"></path>
            </g>
        </g>
    </g>
</svg>