<?xml version="1.0" encoding="UTF-8"?>
<svg width="24px" height="24px" viewBox="0 0 24 24" version="1.1" xmlns="http://www.w3.org/2000/svg" xmlns:xlink="http://www.w3.org/1999/xlink">
    <!-- Generator: Sketch 46.2 (44496) - http://www.bohemiancoding.com/sketch -->
    <title>Overrides/Icons/Icon 5/ico-write@1x</title>
    <desc>Created with Sketch.</desc>
    <defs></defs>
    <g id="Symbols" stroke="none" stroke-width="1" fill="none" fill-rule="evenodd">
        <g id="Overrides/Icons/Icon-5/ico-write">
            <g id="action/icon/write/ico-write">
                <path d="M2.12118559,18.414573 L14.5994262,5.93633243 L18.0098738,9.34677998 L5.53163314,21.7991289 L2.09655686,21.8250206 L2.12118559,18.414573 Z M18.0098738,2.52588488 L21.4203213,5.93633243 L19.5011749,7.85547883 L16.0907274,4.44503127 L18.0098738,2.52588488 Z M-0.000358441558,22.8856347 C-0.000358441558,23.1631816 0.100682501,23.4407284 0.303080138,23.643126 C0.505477775,23.8455237 0.756817119,23.9465646 1.03562697,23.9465646 L5.93611267,23.9219359 C6.2136595,23.9219359 6.46626186,23.8205792 6.6686595,23.6184973 L23.5923858,6.69350799 C23.9968653,6.29029148 23.9968653,5.63289385 23.5923858,5.20346985 L18.7427363,0.303299901 C18.3379411,-0.101179621 17.6818064,-0.101179621 17.2526982,0.303299901 L13.8681424,3.71374745 L0.327708868,17.2270262 C0.151202972,17.4291081 0.0242702881,17.6820262 0.0242702881,17.959573 L-0.000358441558,22.8856347 Z" id="Fill-1" fill="#333333"></path>
                <path d="M3.31400923,17.0463931 L6.95355621,20.8546888" id="Path-3" stroke="#333333" stroke-width="1.5"></path>
            </g>
        </g>
    </g>
</svg>