<?xml version="1.0" encoding="UTF-8"?>
<svg width="44px" height="44px" viewBox="0 0 44 44" version="1.1" xmlns="http://www.w3.org/2000/svg" xmlns:xlink="http://www.w3.org/1999/xlink">
    <!-- Generator: Sketch 46.2 (44496) - http://www.bohemiancoding.com/sketch -->
    <title>icon/ico-cate-fitness</title>
    <desc>Created with Sketch.</desc>
    <defs></defs>
    <g id="Symbols" stroke="none" stroke-width="1" fill="none" fill-rule="evenodd">
        <g id="icon/ico-cate-fitness" stroke="#FFFFFF">
            <g transform="translate(1.000000, 1.000000)">
                <path d="M21,42 C32.598,42 42,32.598 42,21 C42,9.402 32.598,0 21,0 C9.402,0 0,9.402 0,21 C0,32.598 9.402,42 21,42 Z" id="Stroke-1" stroke-width="2"></path>
                <g id="Group-9" transform="translate(10.000000, 8.000000)">
                    <g id="Group-7" transform="translate(0.000000, 14.000000)" stroke-width="1.5">
                        <polygon id="Stroke-11" points="0.14904 7.36 22.22904 7.36 22.22904 5.06 0.14904 5.06"></polygon>
                        <path d="M7.509132,10.642008 C7.509132,11.115808 7.124572,11.500368 6.650772,11.500368 L5.607492,11.500368 C5.133692,11.500368 4.749132,11.115808 4.749132,10.642008 L4.749132,1.317808 C4.749132,0.844008 5.133692,0.460368 5.607492,0.460368 L6.650772,0.460368 C7.124572,0.460368 7.509132,0.844008 7.509132,1.317808 L7.509132,10.642008 Z" id="Stroke-3" fill="#5461C8"></path>
                        <path d="M4.749132,8.863096 C4.749132,9.303776 4.432652,9.659816 4.043492,9.659816 L2.694772,9.659816 C2.305612,9.659816 1.989132,9.303776 1.989132,8.863096 L1.989132,3.096536 C1.989132,2.656776 2.305612,2.299816 2.694772,2.299816 L4.043492,2.299816 C4.432652,2.299816 4.749132,2.656776 4.749132,3.096536 L4.749132,8.863096 Z" id="Stroke-5" fill="#5461C8"></path>
                        <path d="M17.629132,1.317992 C17.629132,0.844192 17.244572,0.459632 16.770772,0.459632 L15.727492,0.459632 C15.253692,0.459632 14.869132,0.844192 14.869132,1.317992 L14.869132,10.642192 C14.869132,11.115992 15.253692,11.499632 15.727492,11.499632 L16.770772,11.499632 C17.244572,11.499632 17.629132,11.115992 17.629132,10.642192 L17.629132,1.317992 Z" id="Stroke-7" fill="#5461C8"></path>
                        <path d="M20.389132,3.157992 C20.389132,2.684192 20.004572,2.299632 19.530772,2.299632 L18.487492,2.299632 C18.013692,2.299632 17.629132,2.684192 17.629132,3.157992 L17.629132,8.802192 C17.629132,9.275992 18.013692,9.659632 18.487492,9.659632 L19.530772,9.659632 C20.004572,9.659632 20.389132,9.275992 20.389132,8.802192 L20.389132,3.157992 Z" id="Stroke-9" fill="#5461C8"></path>
                    </g>
                    <path d="M18.324,4.131 C18.324,1.849 16.47,0 14.185,0 C12.693,0 11.39,0.791 10.662,1.973 C9.933,0.791 8.631,0 7.138,0 C4.851,0 3,1.849 3,4.131 C3,4.646 3.095,5.137 3.267,5.591 C3.511,6.232 3.912,6.798 4.422,7.24 L10.283,13.095 C10.385,13.194 10.519,13.25 10.662,13.25 C10.803,13.25 10.939,13.194 11.041,13.095 L16.902,7.24 C17.771,6.485 18.324,5.373 18.324,4.131 Z" id="Stroke-13" stroke-width="1.5"></path>
                    <polyline id="Stroke-14" stroke-linecap="round" stroke-linejoin="round" points="4 6.547 6.545 6.567 8.508 3 10.306 8.775 12.344 4.192 13.368 6.486 17.316 6.486"></polyline>
                </g>
            </g>
        </g>
    </g>
</svg>