<?xml version="1.0" encoding="UTF-8"?>
<svg width="219px" height="72px" viewBox="0 0 219 72" version="1.1" xmlns="http://www.w3.org/2000/svg" xmlns:xlink="http://www.w3.org/1999/xlink">
    <!-- Generator: Sketch 46.2 (44496) - http://www.bohemiancoding.com/sketch -->
    <title>icon/ico-area-search@1x</title>
    <desc>Created with Sketch.</desc>
    <defs>
        <polygon id="path-1" points="24.9622402 7.99965422 65.4522822 7.99965422 40.490042 67.9975795 0 67.9975795"></polygon>
        <polygon id="path-2" points="65.6918391 2 106.181881 2 81.2196409 61.9979253 40.7295989 61.9979253"></polygon>
        <polygon id="path-3" points="101.236099 7.99965422 141.726141 7.99965422 116.763901 67.9975795 76.2738589 67.9975795"></polygon>
        <polygon id="path-4" points="178.509958 7.99965422 219 7.99965422 194.03776 67.9975795 153.547718 67.9975795"></polygon>
        <polygon id="path-5" points="142.965698 3.83693077e-13 183.45574 3.83693077e-13 158.4935 59.9979253 118.003458 59.9979253"></polygon>
        <path d="M25.2489265,17.5021033 C26.0223907,15.9267299 26.473029,14.1771331 26.473029,12.3257013 C26.473029,5.51748744 20.5462118,0 13.2358557,0 C5.92549956,0 0,5.51748744 0,12.3257013 C0,14.1771331 0.449320736,15.9267299 1.23464378,17.5021033 L1.4441511,17.905762 C1.51398688,18.0321354 1.57855203,18.1597357 1.65102311,18.2836553 L13.2358557,37.4273859 L24.8220059,18.2824284 C24.894477,18.1609627 24.9577245,18.0333623 25.0275603,17.9094428 L25.2489265,17.5021033 Z" id="path-6"></path>
        <path d="M25.2489265,17.5021033 C26.0223907,15.9267299 26.473029,14.1771331 26.473029,12.3257013 C26.473029,5.51748744 20.5462118,0 13.2358557,0 C5.92549956,0 0,5.51748744 0,12.3257013 C0,14.1771331 0.449320736,15.9267299 1.23464378,17.5021033 L1.4441511,17.905762 C1.51398688,18.0321354 1.57855203,18.1597357 1.65102311,18.2836553 L13.2358557,37.4273859 L24.8220059,18.2824284 C24.894477,18.1609627 24.9577245,18.0333623 25.0275603,17.9094428 L25.2489265,17.5021033 Z" id="path-7"></path>
        <path d="M25.2489265,17.5021033 C26.0223907,15.9267299 26.473029,14.1771331 26.473029,12.3257013 C26.473029,5.51748744 20.5462118,0 13.2358557,0 C5.92549956,0 0,5.51748744 0,12.3257013 C0,14.1771331 0.449320736,15.9267299 1.23464378,17.5021033 L1.4441511,17.905762 C1.51398688,18.0321354 1.57855203,18.1597357 1.65102311,18.2836553 L13.2358557,37.4273859 L24.8220059,18.2824284 C24.894477,18.1609627 24.9577245,18.0333623 25.0275603,17.9094428 L25.2489265,17.5021033 Z" id="path-8"></path>
    </defs>
    <g id="Symbols" stroke="none" stroke-width="1" fill="none" fill-rule="evenodd">
        <g id="icon/ico-area-search">
            <g>
                <g id="Group" opacity="0.849581069" transform="translate(0.000000, 3.651452)">
                    <g id="Rectangle-4" opacity="0.847599638">
                        <use fill="#32BD96" fill-rule="evenodd" xlink:href="#path-1"></use>
                        <path stroke="#009168" stroke-width="2" d="M25.6292854,8.99965422 L1.49914869,66.9975795 L39.8229967,66.9975795 L63.9531335,8.99965422 L25.6292854,8.99965422 Z"></path>
                    </g>
                    <g id="Rectangle-4-Copy" opacity="0.847599638">
                        <use fill="#32BD96" fill-rule="evenodd" xlink:href="#path-2"></use>
                        <path stroke="#009168" stroke-width="2" d="M66.3588843,3 L42.2287476,60.9979253 L80.5525956,60.9979253 L104.682732,3 L66.3588843,3 Z"></path>
                    </g>
                    <g id="Rectangle-4" opacity="0.847599638">
                        <use fill="#32BD96" fill-rule="evenodd" xlink:href="#path-3"></use>
                        <path stroke="#009168" stroke-width="2" d="M101.903144,8.99965422 L77.7730076,66.9975795 L116.096856,66.9975795 L140.226992,8.99965422 L101.903144,8.99965422 Z"></path>
                    </g>
                    <g id="Rectangle-4-Copy-2" opacity="0.847599638">
                        <use fill="#32BD96" fill-rule="evenodd" xlink:href="#path-4"></use>
                        <path stroke="#009168" stroke-width="2" d="M179.177003,8.99965422 L155.046867,66.9975795 L193.370715,66.9975795 L217.500851,8.99965422 L179.177003,8.99965422 Z"></path>
                    </g>
                    <g id="Rectangle-4-Copy" opacity="0.847599638">
                        <use fill="#32BD96" fill-rule="evenodd" xlink:href="#path-5"></use>
                        <path stroke="#009168" stroke-width="2" d="M143.632743,1 L119.502607,58.9979253 L157.826455,58.9979253 L181.956591,1 L143.632743,1 Z"></path>
                    </g>
                </g>
                <path d="M12,50.097109 C27.7508974,55.2082818 45.2308824,55.2082818 64.439955,50.097109 C93.2535638,42.4303498 115.946543,39.5409119 131.419263,48.7661789 C146.891983,57.9914459 182.971737,60.3454147 197.705394,57.9340342" id="Path-5" stroke="#FFFFFF" stroke-width="2" opacity="0.805480072" stroke-linecap="round" stroke-dasharray="4,6"></path>
                <path d="M130.539419,14.4315353 L106.804979,70.9468913" id="Path-6" stroke="#FFFFFF" stroke-width="2" opacity="0.79613904" stroke-linecap="round" stroke-linejoin="round" stroke-dasharray="4"></path>
                <path d="M206.307054,14.4315353 L182.572614,70.9468913" id="Path-6-Copy" stroke="#FFFFFF" stroke-width="2" opacity="0.79613904" stroke-linecap="round" stroke-linejoin="round" stroke-dasharray="4"></path>
                <g id="icons/ico-place" transform="translate(101.000000, 0.000000)">
                    <g id="Stroke-1">
                        <use fill="#00C58E" fill-rule="evenodd" xlink:href="#path-6"></use>
                        <path stroke="#FFFFFF" stroke-width="2" d="M24.3602009,17.0431772 C25.0890176,15.5521773 25.473029,13.9574561 25.473029,12.3257013 C25.473029,6.08678363 20.0097077,1 13.2358557,1 C6.46228323,1 1,6.08651655 1,12.3257013 C1,13.9705148 1.38893047,15.5701518 2.12221603,17.0414347 L2.31939897,17.4220873 C2.34928243,17.4765533 2.34928243,17.4765533 2.37676299,17.5276116 C2.39273339,17.5573964 2.39273339,17.5573964 2.40797255,17.585884 C2.46022706,17.6835376 2.48591998,17.7303971 2.506566,17.7659233 L13.2358778,35.495921 L23.963242,17.7700569 C23.9881917,17.7282398 24.0108003,17.6872057 24.0609996,17.5934653 L24.0694407,17.5777033 C24.1093978,17.5031675 24.1296367,17.4659339 24.1489232,17.4319527 L24.3602009,17.0431772 Z"></path>
                    </g>
                    <path d="M18.1701245,12.780083 C18.1701245,10.306962 16.1663938,8.30290456 13.6929461,8.30290456 C11.2203081,8.30290456 9.21576763,10.307445 9.21576763,12.780083 C9.21576763,15.2527209 11.2203081,17.2572614 13.6929461,17.2572614 C16.1663938,17.2572614 18.1701245,15.253204 18.1701245,12.780083 Z" id="Stroke-3" stroke="#FFFFFF" stroke-width="2"></path>
                </g>
                <g id="icons/ico-place-copy" transform="translate(170.705394, 12.605809)">
                    <g id="Stroke-1">
                        <use fill="#00C58E" fill-rule="evenodd" xlink:href="#path-7"></use>
                        <path stroke="#FFFFFF" stroke-width="2" d="M24.3602009,17.0431772 C25.0890176,15.5521773 25.473029,13.9574561 25.473029,12.3257013 C25.473029,6.08678363 20.0097077,1 13.2358557,1 C6.46228323,1 1,6.08651655 1,12.3257013 C1,13.9705148 1.38893047,15.5701518 2.12221603,17.0414347 L2.31939897,17.4220873 C2.34928243,17.4765533 2.34928243,17.4765533 2.37676299,17.5276116 C2.39273339,17.5573964 2.39273339,17.5573964 2.40797255,17.585884 C2.46022706,17.6835376 2.48591998,17.7303971 2.506566,17.7659233 L13.2358778,35.495921 L23.963242,17.7700569 C23.9881917,17.7282398 24.0108003,17.6872057 24.0609996,17.5934653 L24.0694407,17.5777033 C24.1093978,17.5031675 24.1296367,17.4659339 24.1489232,17.4319527 L24.3602009,17.0431772 Z"></path>
                    </g>
                    <path d="M18.1701245,12.780083 C18.1701245,10.306962 16.1663938,8.30290456 13.6929461,8.30290456 C11.2203081,8.30290456 9.21576763,10.307445 9.21576763,12.780083 C9.21576763,15.2527209 11.2203081,17.2572614 13.6929461,17.2572614 C16.1663938,17.2572614 18.1701245,15.253204 18.1701245,12.780083 Z" id="Stroke-3" stroke="#FFFFFF" stroke-width="2"></path>
                </g>
                <g id="icons/ico-place-copy-2" transform="translate(29.211618, 2.564315)">
                    <g id="Stroke-1">
                        <use fill="#00C58E" fill-rule="evenodd" xlink:href="#path-8"></use>
                        <path stroke="#FFFFFF" stroke-width="2" d="M24.3602009,17.0431772 C25.0890176,15.5521773 25.473029,13.9574561 25.473029,12.3257013 C25.473029,6.08678363 20.0097077,1 13.2358557,1 C6.46228323,1 1,6.08651655 1,12.3257013 C1,13.9705148 1.38893047,15.5701518 2.12221603,17.0414347 L2.31939897,17.4220873 C2.34928243,17.4765533 2.34928243,17.4765533 2.37676299,17.5276116 C2.39273339,17.5573964 2.39273339,17.5573964 2.40797255,17.585884 C2.46022706,17.6835376 2.48591998,17.7303971 2.506566,17.7659233 L13.2358778,35.495921 L23.963242,17.7700569 C23.9881917,17.7282398 24.0108003,17.6872057 24.0609996,17.5934653 L24.0694407,17.5777033 C24.1093978,17.5031675 24.1296367,17.4659339 24.1489232,17.4319527 L24.3602009,17.0431772 Z"></path>
                    </g>
                    <path d="M18.1701245,12.780083 C18.1701245,10.306962 16.1663938,8.30290456 13.6929461,8.30290456 C11.2203081,8.30290456 9.21576763,10.307445 9.21576763,12.780083 C9.21576763,15.2527209 11.2203081,17.2572614 13.6929461,17.2572614 C16.1663938,17.2572614 18.1701245,15.253204 18.1701245,12.780083 Z" id="Stroke-3" stroke="#FFFFFF" stroke-width="2"></path>
                </g>
                <path d="" id="Path-3" stroke="#979797"></path>
            </g>
        </g>
    </g>
</svg>