<?xml version="1.0" encoding="UTF-8"?>
<svg width="25px" height="24px" viewBox="0 0 25 24" version="1.1" xmlns="http://www.w3.org/2000/svg" xmlns:xlink="http://www.w3.org/1999/xlink">
    <!-- Generator: Sketch 46.2 (44496) - http://www.bohemiancoding.com/sketch -->
    <title>Overrides/Icons/Icon 3/ico-detailsearch@1x</title>
    <desc>Created with Sketch.</desc>
    <defs></defs>
    <g id="Symbols" stroke="none" stroke-width="1" fill="none" fill-rule="evenodd">
        <g id="Overrides/Icons/Icon-3/ico-detailsearch">
            <g id="action/icon/ico-detailsearch">
                <g id="Group-20" transform="translate(4.000000, 5.000000)">
                    <g id="Group">
                        <path d="M5.29990196,12.6535686 C4.57784314,12.6535686 3.99254902,12.0292549 3.99254902,11.2590588 C3.99254902,10.4888627 4.57784314,9.86454902 5.29990196,9.86454902 C6.02122549,9.86454902 6.60651961,10.4888627 6.60651961,11.2590588 C6.60651961,12.0292549 6.02122549,12.6535686 5.29990196,12.6535686" id="Fill-8" fill="#FEFEFE"></path>
                        <path d="M11.2913725,8.45317647 C10.5693137,8.45317647 9.98401961,7.82886275 9.98401961,7.05945098 C9.98401961,6.28847059 10.5693137,5.66415686 11.2913725,5.66415686 C12.0126961,5.66415686 12.5979902,6.28847059 12.5979902,7.05945098 C12.5979902,7.82886275 12.0126961,8.45317647 11.2913725,8.45317647" id="Fill-14" fill="#FEFEFE"></path>
                        <g id="Group-2" transform="translate(0.000000, 5.490196)" stroke="#333333">
                            <g id="Group-4">
                                <path d="M16.7647059,1.76470588 L0,1.76470588" id="Stroke-12" stroke-linecap="round"></path>
                                <path d="M11.274951,3.1372549 C10.4083451,3.1372549 9.70588235,2.43498974 9.70588235,1.56950969 C9.70588235,0.702265158 10.4083451,0 11.274951,0 C12.1406746,0 12.8431373,0.702265158 12.8431373,1.56950969 C12.8431373,2.43498974 12.1406746,3.1372549 11.274951,3.1372549 Z" id="Stroke-16" fill="#FFFFFF"></path>
                            </g>
                        </g>
                        <g id="Group-2-Copy" stroke="#333333">
                            <g id="Group-4">
                                <path d="M16.7647059,1.76470588 L0,1.76470588" id="Stroke-12" stroke-linecap="round"></path>
                                <path d="M4.7063236,3.1372549 C3.8397176,3.1372549 3.1372549,2.43498974 3.1372549,1.56950969 C3.1372549,0.702265158 3.8397176,0 4.7063236,0 C5.5720471,0 6.2745098,0.702265158 6.2745098,1.56950969 C6.2745098,2.43498974 5.5720471,3.1372549 4.7063236,3.1372549 Z" id="Stroke-16" fill="#FFFFFF"></path>
                            </g>
                        </g>
                        <g id="Group-2-Copy-2" transform="translate(0.000000, 10.980392)" stroke="#333333">
                            <g id="Group-4">
                                <path d="M16.7647059,1.76470588 L0,1.76470588" id="Stroke-12" stroke-linecap="round"></path>
                                <path d="M4.7063236,3.1372549 C3.8397176,3.1372549 3.1372549,2.43498974 3.1372549,1.56950969 C3.1372549,0.702265158 3.8397176,0 4.7063236,0 C5.5720471,0 6.2745098,0.702265158 6.2745098,1.56950969 C6.2745098,2.43498974 5.5720471,3.1372549 4.7063236,3.1372549 Z" id="Stroke-16" fill="#FFFFFF"></path>
                            </g>
                        </g>
                    </g>
                </g>
                <rect id="Rectangle-3" stroke="#333333" stroke-width="2" x="1" y="1" width="23" height="22" rx="2"></rect>
            </g>
        </g>
    </g>
</svg>