<?xml version="1.0" encoding="UTF-8"?>
<svg width="21px" height="18px" viewBox="0 0 21 18" version="1.1" xmlns="http://www.w3.org/2000/svg" xmlns:xlink="http://www.w3.org/1999/xlink">
    <!-- Generator: Sketch 46.2 (44496) - http://www.bohemiancoding.com/sketch -->
    <title>icon/1192_ico-kakao-id@1x</title>
    <desc>Created with Sketch.</desc>
    <defs></defs>
    <g id="Symbols" stroke="none" stroke-width="1" fill="none" fill-rule="evenodd">
        <g id="icon/1192_ico-kakao-id">
            <g id="icon/ico-kakao-id" transform="translate(1.000000, 1.000000)">
                <path d="M17.7701011,-8.70414851e-14 L1.23025132,-8.70414851e-14 C0.550459056,-8.70414851e-14 0,0.539540745 0,1.20465236 L0,12.4035726 C0,13.0686842 0.550459056,13.60788 1.23025132,13.60788 L13.1905778,13.60788 L15.7881666,16.15 L15.7881666,13.60788 L17.7701011,13.60788 C18.4498934,13.60788 19,13.0686842 19,12.4035726 L19,1.20465236 C19,0.539540745 18.4498934,-8.70414851e-14 17.7701011,-8.70414851e-14 Z" id="Page-1" stroke="#595959" stroke-width="1.5" stroke-linecap="round" stroke-linejoin="round"></path>
                <g id="..." transform="translate(3.500000, 5.500000)" fill="#595959">
                    <path d="M12.5,1.25098101 C12.5,1.94043321 11.9413057,2.5 11.2503923,2.5 C10.5598713,2.5 10,1.94043321 10,1.25098101 C10,0.55995919 10.5598713,0 11.2503923,0 C11.9413057,0 12.5,0.55995919 12.5,1.25098101" id="Fill-5-Copy"></path>
                    <path d="M7.5,1.25098101 C7.5,1.94043321 6.94130571,2.5 6.25039234,2.5 C5.55987131,2.5 5,1.94043321 5,1.25098101 C5,0.55995919 5.55987131,0 6.25039234,0 C6.94130571,0 7.5,0.55995919 7.5,1.25098101" id="Fill-5-Copy-2"></path>
                    <path d="M2.5,1.25098101 C2.5,1.94043321 1.94130571,2.5 1.25039234,2.5 C0.559871312,2.5 0,1.94043321 0,1.25098101 C0,0.55995919 0.559871312,0 1.25039234,0 C1.94130571,0 2.5,0.55995919 2.5,1.25098101" id="Fill-5-Copy-3"></path>
                </g>
            </g>
        </g>
    </g>
</svg>