<?xml version="1.0" encoding="UTF-8"?>
<svg width="44px" height="44px" viewBox="0 0 44 44" version="1.1" xmlns="http://www.w3.org/2000/svg" xmlns:xlink="http://www.w3.org/1999/xlink">
    <!-- Generator: Sketch 46.2 (44496) - http://www.bohemiancoding.com/sketch -->
    <title>icon/ico-cate-tour</title>
    <desc>Created with Sketch.</desc>
    <defs></defs>
    <g id="Symbols" stroke="none" stroke-width="1" fill="none" fill-rule="evenodd">
        <g id="icon/ico-cate-tour">
            <g transform="translate(1.000000, 1.000000)">
                <path d="M21,42 C32.6,42 42,32.598 42,21 C42,9.402 32.6,0 21,0 C9.402,0 0,9.402 0,21 C0,32.598 9.402,42 21,42 Z" id="Stroke-1" stroke="#FFFFFF" stroke-width="2"></path>
                <g id="Group-2" transform="translate(8.000000, 8.000000)">
                    <path d="M18.5781,9.1006 L18.5831,9.1006 L18.5781,9.1006 Z M13.0001,0.3726 C9.6071,0.3726 6.8571,3.1246 6.8571,6.5186 C6.8571,7.4426 7.0621,8.3146 7.4281,9.1006 L7.4241,9.1006 L7.5251,9.3016 C7.5581,9.3646 7.5881,9.4276 7.6211,9.4896 L13.0001,19.0366 L18.3791,9.4896 C18.4121,9.4286 18.4431,9.3646 18.4741,9.3026 L18.5781,9.1006 L18.5721,9.1006 C18.9371,8.3146 19.1461,7.4426 19.1461,6.5186 C19.1461,3.1246 16.3941,0.3726 13.0001,0.3726 L13.0001,0.3726 Z M13.0001,1.8726 C15.5621,1.8726 17.6461,3.9566 17.6461,6.5186 C17.6461,7.1916 17.5001,7.8486 17.2121,8.4686 C17.2021,8.4896 17.1931,8.5096 17.1841,8.5306 L17.1351,8.6276 C17.1351,8.6286 17.1131,8.6716 17.1121,8.6726 L17.0721,8.7536 L13.0001,15.9806 L8.9431,8.7816 L8.9121,8.7206 L8.8631,8.6236 L8.8081,8.5166 C8.8031,8.4996 8.7951,8.4846 8.7881,8.4686 C8.5021,7.8536 8.3571,7.1976 8.3571,6.5186 C8.3571,3.9566 10.4401,1.8726 13.0001,1.8726 L13.0001,1.8726 Z" id="Fill-3" fill="#FFFFFF"></path>
                    <path d="M13,4.1167 C11.57,4.1167 10.408,5.2777 10.408,6.7087 C10.408,8.1407 11.57,9.3007 13,9.3007 C14.434,9.3007 15.592,8.1407 15.592,6.7087 C15.592,5.2777 14.434,4.1167 13,4.1167 M13,5.6167 C13.602,5.6167 14.092,6.1067 14.092,6.7087 C14.092,7.3107 13.602,7.8007 13,7.8007 C12.398,7.8007 11.908,7.3107 11.908,6.7087 C11.908,6.1067 12.398,5.6167 13,5.6167" id="Fill-5" fill="#FFFFFF"></path>
                    <polyline id="Stroke-7" stroke="#FFFFFF" stroke-width="1.5" stroke-linecap="round" stroke-linejoin="round" points="6.25 20.1675 9.344 12.5855 2.791 16.4855 0 23.6265 6.25 20.1675 13.055 23.6265 19.975 20.2795 26 23.6265 23.1 16.3735 16.553 12.4885 19.975 20.2795"></polyline>
                    <path d="M13.0547,23.627 L13.0547,18.204" id="Stroke-9" stroke="#FFFFFF" stroke-width="1.5" stroke-linecap="round" stroke-linejoin="round"></path>
                </g>
            </g>
        </g>
    </g>
</svg>