<?xml version="1.0" encoding="UTF-8"?>
<svg width="24px" height="34px" viewBox="0 0 24 34" version="1.1" xmlns="http://www.w3.org/2000/svg" xmlns:xlink="http://www.w3.org/1999/xlink">
    <!-- Generator: Sketch 46.2 (44496) - http://www.bohemiancoding.com/sketch -->
    <title>icon/1189_ico-mappicker-bus@1x</title>
    <desc>Created with Sketch.</desc>
    <defs></defs>
    <g id="Symbols" stroke="none" stroke-width="1" fill="none" fill-rule="evenodd">
        <g id="icon/1189_ico-mappicker-bus">
            <path d="M20.4852693,3.48078347 L20.4852693,3.48078347 C15.7993251,-1.16026116 8.20133511,-1.16026116 3.51473066,3.48078347 L3.51473066,3.48078347 C-0.70776858,7.66282368 -1.18309682,15.5371686 2.40035,20.2690987 L12,34 L21.59965,20.2690987 C25.1830968,15.5371686 24.7077686,7.66282368 20.4852693,3.48078347 Z" id="Shape" fill="#00C58E" fill-rule="nonzero"></path>
            <g id="icon/ico-mappicker-bus" transform="translate(3.000000, 7.000000)" fill="#FFFFFF">
                <g id="icon/bus">
                    <circle id="Oval-3" cx="3.51528895" cy="6.98823529" r="1.05882353"></circle>
                    <circle id="Oval-3-Copy" cx="14.0188132" cy="6.98823529" r="1.05882353"></circle>
                    <path d="M12.5872567,7.4976524 L5.03690547,7.4976524 L4.96956281,7.4976524 C5.04718412,7.31151905 5.09004848,7.10726679 5.09004848,6.89300302 C5.09004848,6.02476256 4.38620052,5.32091461 3.51796007,5.32091461 C2.64971962,5.32091461 1.94587166,6.02476256 1.94587166,6.89300302 C1.94587166,7.10726679 1.98873602,7.31151905 2.06635733,7.4976524 L1.76172034,7.4976524 C1.20943559,7.4976524 0.761720343,7.04993715 0.761720343,6.4976524 C0.761720343,6.46240975 0.763583409,6.42719174 0.767301741,6.39214579 L1.35059601,0.894493389 L1.35059601,0.894493389 C1.40455658,0.385905378 1.83357204,1.06410692e-14 2.34501461,1.05471187e-14 L2.34501461,1.06540548e-14 L15.9411765,1.07909541e-14 L15.9411765,1.08801856e-14 C16.4934612,1.17597874e-14 16.9411765,0.44771525 16.9411765,1 L16.9411765,6.4976524 L16.9411765,6.4976524 C16.9411765,7.04993715 16.4934612,7.4976524 15.9411765,7.4976524 L15.4904622,7.4976524 C15.5680835,7.31151905 15.6109478,7.10726679 15.6109478,6.89300302 C15.6109478,6.02476256 14.9070999,5.32091461 14.0388594,5.32091461 C13.170619,5.32091461 12.466771,6.02476256 12.466771,6.89300302 C12.466771,7.10726679 12.5096354,7.31151905 12.5872567,7.4976524 Z M2.69970653,0.73657289 L2.69970653,0.73657289 C2.44752673,0.73657289 2.23481687,0.924367415 2.20356168,1.17460284 L1.86386343,3.89429607 C1.86129581,3.91485294 1.86000828,3.93554952 1.86000828,3.95626613 C1.86000828,4.2324085 2.08386591,4.45626613 2.36000828,4.45626613 L4.41099712,4.45626613 C4.68713949,4.45626613 4.91099712,4.2324085 4.91099712,3.95626613 L4.91099712,3.95626613 L4.91099712,1.23657289 C4.91099712,0.960430515 4.68713949,0.73657289 4.41099712,0.73657289 L4.41099712,0.73657289 L2.69970653,0.73657289 Z M6.02429668,0.73657289 L6.02429668,0.73657289 C5.7481543,0.73657289 5.52429668,0.960430515 5.52429668,1.23657289 L5.52429668,1.23657289 L5.52429668,3.13888995 C5.52429668,3.41503232 5.7481543,3.63888995 6.02429668,3.63888995 L8.28940337,3.63888995 C8.56554574,3.63888995 8.78940337,3.41503232 8.78940337,3.13888995 L8.78940337,1.23657289 C8.78940337,0.960430515 8.56554574,0.73657289 8.28940337,0.73657289 L6.02429668,0.73657289 Z M9.70716113,0.73657289 L9.70716113,0.73657289 C9.43101875,0.73657289 9.20716113,0.960430515 9.20716113,1.23657289 L9.20716113,1.23657289 L9.20716113,3.13888995 C9.20716113,3.41503232 9.43101875,3.63888995 9.70716113,3.63888995 L11.9722678,3.63888995 C12.2484102,3.63888995 12.4722678,3.41503232 12.4722678,3.13888995 L12.4722678,1.23657289 C12.4722678,0.960430515 12.2484102,0.73657289 11.9722678,0.73657289 L9.70716113,0.73657289 Z M13.3900256,0.73657289 L13.3900256,0.73657289 C13.1138832,0.73657289 12.8900256,0.960430515 12.8900256,1.23657289 L12.8900256,1.23657289 L12.8900256,3.13888995 C12.8900256,3.41503232 13.1138832,3.63888995 13.3900256,3.63888995 L15.6551323,3.63888995 C15.9312746,3.63888995 16.1551323,3.41503232 16.1551323,3.13888995 L16.1551323,1.23657289 C16.1551323,0.960430515 15.9312746,0.73657289 15.6551323,0.73657289 L13.3900256,0.73657289 Z" id="Combined-Shape"></path>
                </g>
            </g>
        </g>
    </g>
</svg>