<?xml version="1.0" encoding="UTF-8"?>
<svg width="24px" height="34px" viewBox="0 0 24 34" version="1.1" xmlns="http://www.w3.org/2000/svg" xmlns:xlink="http://www.w3.org/1999/xlink">
    <!-- Generator: Sketch 46.2 (44496) - http://www.bohemiancoding.com/sketch -->
    <title>icon/1187_ico-mappicker-activity@1x</title>
    <desc>Created with Sketch.</desc>
    <defs></defs>
    <g id="Symbols" stroke="none" stroke-width="1" fill="none" fill-rule="evenodd">
        <g id="icon/1187_ico-mappicker-activity">
            <g id="icon/ico-mappicker-activity">
                <path d="M20.4852693,3.48078347 L20.4852693,3.48078347 C15.7993251,-1.16026116 8.20133511,-1.16026116 3.51473066,3.48078347 L3.51473066,3.48078347 C-0.70776858,7.66282368 -1.18309682,15.5371686 2.40035,20.2690987 L12,34 L21.59965,20.2690987 C25.1830968,15.5371686 24.7077686,7.66282368 20.4852693,3.48078347 Z" id="Shape" fill="#00C58E" fill-rule="nonzero"></path>
                <g id="Group-11" transform="translate(4.000000, 5.000000)" fill="#FFFFFF">
                    <circle id="Oval" cx="11.1286499" cy="1.63384441" r="1.38769261"></circle>
                    <path d="M7.63800198,4.55164259 L9.63241908,4.55164259 C9.95182026,4.55164259 10.2107461,4.29271677 10.2107461,3.97331559 L10.2107461,3.97331559 C10.2107461,3.65391441 9.95182026,3.3949886 9.63241908,3.3949886 L9.63241908,3.3949886 L7.31984154,3.3949886 L7.31984154,3.3949886 C7.08623717,3.3949886 6.8849823,3.5334932 6.79371688,3.73286244 C6.78228939,3.74725563 6.77144131,3.76232153 6.76122821,3.77804833 L5.75174921,5.33250967 L5.75174921,5.33250967 C5.57779086,5.60038204 5.65392321,5.95855661 5.92179558,6.13251496 L5.92179558,6.13251496 L5.92179558,6.13251496 C6.18966795,6.30647331 6.54784252,6.23034095 6.72180087,5.96246858 L7.63800198,4.55164259 Z" id="Combined-Shape"></path>
                    <path d="M11.3217007,8.14225146 L9.22579363,7.16502834 C8.93631786,7.03005937 8.81107815,6.68600638 8.94606292,6.39656448 C9.0810477,6.10712258 9.42514096,5.98189754 9.71461673,6.11686651 L11.8105238,7.09408963 C12.0999995,7.2290586 12.2252392,7.57311159 12.0902545,7.86255349 C11.9552697,8.15199538 11.6111764,8.27722043 11.3217007,8.14225146 Z" id="Combined-Shape-Copy-2"></path>
                    <path d="M11.7106292,8.3332725 L8.07462599,9.3823892 C7.75385968,9.47494173 7.40933752,9.31905594 7.30511423,9.03420854 C7.20089093,8.74936114 7.37643374,8.44341804 7.69720006,8.35086551 L11.3332033,7.30174882 C11.6539696,7.20919629 11.9984918,7.36508208 12.1027151,7.64992948 C12.2069383,7.93477688 12.0313955,8.24071997 11.7106292,8.3332725 Z" id="Combined-Shape-Copy-3"></path>
                    <path d="M12.3061146,5.84348047 L10.2690964,4.89360328 C9.97968156,4.75864693 9.85446821,4.4146261 9.98942457,4.12521126 C10.1243809,3.83579642 10.4684018,3.71058308 10.7578166,3.84553943 L12.612083,4.71019806 L13.9081374,3.90033335 C14.178948,3.73111214 14.5356642,3.81346657 14.7048854,4.08427711 C14.8741066,4.35508766 14.7917522,4.71180387 14.5209416,4.88102508 L14.5209416,4.88102508 L12.9488927,5.86335027 C12.7443753,5.99114693 12.490863,5.9754614 12.3061146,5.84348047 Z" id="Combined-Shape-Copy"></path>
                    <path d="M10.7651117,3.70062578 L10.8642515,3.74857977 C11.1963918,3.90923617 11.3354069,4.30872682 11.1747505,4.64086709 C11.1652389,4.66053138 11.1547685,4.67971732 11.1433771,4.69835577 L7.15747611,11.2200389 C7.00671574,11.4667112 6.6845329,11.5444632 6.43786061,11.3937028 C6.42744139,11.3873348 6.4172482,11.3806042 6.40729973,11.3735233 C6.14275567,11.1852318 6.05156623,10.8341942 6.1910225,10.5409551 L9.57390518,3.42766002 C9.98647736,3.42766002 10.3937062,3.52097678 10.7651117,3.70062578 Z" id="Rectangle-3"></path>
                    <g id="Group-9" transform="translate(0.000000, 6.324072)" stroke-linecap="round" stroke="#FFFFFF" stroke-linejoin="round">
                        <g id="Group-10">
                            <path d="M2.0768256,0.451719421 L6.84130787,0.451719421" id="Path-4"></path>
                            <path d="M0.855163484,2.2585971 L5.61964575,2.2585971" id="Path-4-Copy"></path>
                            <path d="M0,4.06547479 L4.76448227,4.06547479" id="Path-4-Copy-2"></path>
                        </g>
                    </g>
                </g>
            </g>
        </g>
    </g>
</svg>