<?xml version="1.0" encoding="UTF-8"?>
<svg width="13px" height="19px" viewBox="0 0 13 19" version="1.1" xmlns="http://www.w3.org/2000/svg" xmlns:xlink="http://www.w3.org/1999/xlink">
    <!-- Generator: Sketch 46.2 (44496) - http://www.bohemiancoding.com/sketch -->
    <title>icons/1202_ico-place@1x</title>
    <desc>Created with Sketch.</desc>
    <defs></defs>
    <g id="Symbols" stroke="none" stroke-width="1" fill="none" fill-rule="evenodd">
        <g id="icons/1202_ico-place" stroke-width="1.5" stroke="#555555">
            <g id="icons/ico-place">
                <path d="M11.7332192,8.18987276 C12.0719726,7.49978497 12.25,6.76370062 12.25,6.01124358 C12.25,3.11898251 9.68809889,0.75 6.49967647,0.75 C3.31139844,0.75 0.75,3.11884344 0.75,6.01124358 C0.75,6.77137663 0.931049234,7.51091232 1.27099438,8.18839865 L1.36454822,8.36796951 C1.38024844,8.39638948 1.38024844,8.39638948 1.39425082,8.42222858 C1.40227601,8.43709297 1.40227601,8.43709297 1.40975957,8.45098672 C1.43712012,8.50162365 1.44533111,8.51649644 1.45123038,8.5266822 L6.49969335,16.8119959 L11.5463338,8.53010975 C11.5558138,8.51432972 11.5623361,8.502573 11.5882885,8.45460935 L11.5924479,8.4468958 C11.6126429,8.40947417 11.6126429,8.40947417 11.6322399,8.37441273 L11.7332192,8.18987276 Z" id="Stroke-1"></path>
                <path d="M8.41081871,6.83742637 C8.41081871,5.89919525 7.61990632,5.13024689 6.63304094,5.13024689 C5.64653961,5.13024689 4.85526316,5.89942378 4.85526316,6.83742637 C4.85526316,7.77542895 5.64653961,8.54460584 6.63304094,8.54460584 C7.61990632,8.54460584 8.41081871,7.77565748 8.41081871,6.83742637 Z" id="Stroke-3"></path>
            </g>
        </g>
    </g>
</svg>