<?xml version="1.0" encoding="UTF-8"?>
<svg width="44px" height="44px" viewBox="0 0 44 44" version="1.1" xmlns="http://www.w3.org/2000/svg" xmlns:xlink="http://www.w3.org/1999/xlink">
    <!-- Generator: Sketch 46.2 (44496) - http://www.bohemiancoding.com/sketch -->
    <title>icon/ico-cate-cooking</title>
    <desc>Created with Sketch.</desc>
    <defs></defs>
    <g id="Symbols" stroke="none" stroke-width="1" fill="none" fill-rule="evenodd">
        <g id="icon/ico-cate-cooking">
            <g transform="translate(1.000000, 1.000000)">
                <path d="M21,42 C32.598,42 42,32.598 42,21 C42,9.402 32.598,0 21,0 C9.402,0 0,9.402 0,21 C0,32.598 9.402,42 21,42 Z" id="Stroke-1" stroke="#FFFFFF" stroke-width="2"></path>
                <path d="M8,20.4487 C8,13.2687 13.82,7.4487 21,7.4487 C28.18,7.4487 34,13.2687 34,20.4487 C34,27.6287 28.18,33.4487 21,33.4487 C13.82,33.4487 8,27.6287 8,20.4487 Z" id="Stroke-3" stroke="#FFFFFF" stroke-width="1.5" stroke-linecap="round" stroke-linejoin="round"></path>
                <path d="M11,20.4487 C11,14.9267 15.477,10.4487 21,10.4487 C26.523,10.4487 31,14.9267 31,20.4487 C31,25.9717 26.523,30.4487 21,30.4487 C15.477,30.4487 11,25.9717 11,20.4487 Z" id="Stroke-5" stroke="#FFFFFF" stroke-linecap="round" stroke-linejoin="round"></path>
                <path d="M17.5436311,24.9918193 C17.2017861,24.9918193 16.9243466,24.7131413 16.9243466,24.3725348 C16.9243466,24.0306898 17.2017861,23.7520118 17.5436311,23.7520118 C17.8867147,23.7520118 18.1629155,24.0306898 18.1629155,24.3725348 C18.1629155,24.7131413 17.8867147,24.9918193 17.5436311,24.9918193 Z" id="Fill-7" fill="#FFFFFF"></path>
                <path d="M16.3050622,23.7532504 C15.9632172,23.7532504 15.6857777,23.4745724 15.6857777,23.1339659 C15.6857777,22.7921209 15.9632172,22.5134429 16.3050622,22.5134429 C16.6481458,22.5134429 16.9243466,22.7921209 16.9243466,23.1339659 C16.9243466,23.4745724 16.6481458,23.7532504 16.3050622,23.7532504 Z" id="Fill-9" fill="#FFFFFF"></path>
                <path d="M16.3050622,26.2303882 C15.9632172,26.2303882 15.6857777,25.9517102 15.6857777,25.6111037 C15.6857777,25.2692587 15.9632172,24.9905807 16.3050622,24.9905807 C16.6481458,24.9905807 16.9243466,25.2692587 16.9243466,25.6111037 C16.9243466,25.9517102 16.6481458,26.2303882 16.3050622,26.2303882 Z" id="Fill-11" fill="#FFFFFF"></path>
                <path d="M18.7822,26.2303882 C18.440355,26.2303882 18.1629155,25.9517102 18.1629155,25.6111037 C18.1629155,25.2692587 18.440355,24.9905807 18.7822,24.9905807 C19.1252836,24.9905807 19.4014845,25.2692587 19.4014845,25.6111037 C19.4014845,25.9517102 19.1252836,26.2303882 18.7822,26.2303882 Z" id="Fill-13" fill="#FFFFFF"></path>
                <path d="M20.0207689,24.9918193 C19.6789239,24.9918193 19.4014845,24.7131413 19.4014845,24.3725348 C19.4014845,24.0306898 19.6789239,23.7520118 20.0207689,23.7520118 C20.3638525,23.7520118 20.6400534,24.0306898 20.6400534,24.3725348 C20.6400534,24.7131413 20.3638525,24.9918193 20.0207689,24.9918193 Z" id="Fill-15" fill="#FFFFFF"></path>
                <path d="M20.0207689,27.4689571 C19.6789239,27.4689571 19.4014845,27.1902791 19.4014845,26.8496726 C19.4014845,26.5078276 19.6789239,26.2291496 20.0207689,26.2291496 C20.3638525,26.2291496 20.6400534,26.5078276 20.6400534,26.8496726 C20.6400534,27.1902791 20.3638525,27.4689571 20.0207689,27.4689571 Z" id="Fill-17" fill="#FFFFFF"></path>
                <path d="M21.2593378,26.2303882 C20.9174928,26.2303882 20.6400534,25.9517102 20.6400534,25.6111037 C20.6400534,25.2692587 20.9174928,24.9905807 21.2593378,24.9905807 C21.6024214,24.9905807 21.8786223,25.2692587 21.8786223,25.6111037 C21.8786223,25.9517102 21.6024214,26.2303882 21.2593378,26.2303882 Z" id="Fill-19" fill="#FFFFFF"></path>
                <path d="M23.6738281,24.0043945 C23.6738281,24.0043945 22.1089,23.6409 20.7419,22.1609 C20.7419,22.1609 18.7812227,19.7139766 15.9282227,20.1259766 C13.6486003,20.719401 13.1491594,19.7657089 14.4299,17.2649 C14.4299,17.2649 17.0132617,10.8407383 26.2182617,15.2817383 C26.2182617,15.2817383 29.6876505,16.7833322 28.409668,21.0161133 C28.409668,21.0161133 27.1588281,24.3003945 23.6738281,24.0043945 Z" id="Stroke-21" stroke="#FFFFFF" stroke-linecap="round" stroke-linejoin="round"></path>
                <path d="M25.8467,19.1479 C25.8467,20.0139 25.1447,20.7149 24.2787,20.7149 C23.4127,20.7149 22.7107,20.0139 22.7107,19.1479 C22.7107,18.2829 23.4127,17.5809 24.2787,17.5809 C25.1447,17.5809 25.8467,18.2829 25.8467,19.1479 Z" id="Stroke-23" stroke="#FFFFFF" stroke-linecap="round" stroke-linejoin="round"></path>
                <path d="M22.3945,15.9214 L19.7665,18.8624" id="Stroke-25" stroke="#FFFFFF" stroke-width="0.7" stroke-linecap="round" stroke-linejoin="round"></path>
                <path d="M20.7031,15.9214 L18.5001,18.3654" id="Stroke-27" stroke="#FFFFFF" stroke-width="0.7" stroke-linecap="round" stroke-linejoin="round"></path>
                <path d="M19.2021,15.9214 L17.5141,17.7764" id="Stroke-29" stroke="#FFFFFF" stroke-width="0.7" stroke-linecap="round" stroke-linejoin="round"></path>
            </g>
        </g>
    </g>
</svg>