<?xml version="1.0" encoding="UTF-8"?>
<svg width="22px" height="22px" viewBox="0 0 22 22" version="1.1" xmlns="http://www.w3.org/2000/svg" xmlns:xlink="http://www.w3.org/1999/xlink">
    <!-- Generator: Sketch 46.2 (44496) - http://www.bohemiancoding.com/sketch -->
    <title>Write/icons/ico-search@1x</title>
    <desc>Created with Sketch.</desc>
    <defs>
        <path d="M18,8.99953079 C18,13.9703874 13.9700722,18 8.99976537,18 C4.02992779,18 0,13.9703874 0,8.99953079 C0,4.02961264 4.02992779,0 8.99976537,0 C13.9700722,0 18,4.02961264 18,8.99953079 Z" id="path-1"></path>
    </defs>
    <g id="위킨" stroke="none" stroke-width="1" fill="none" fill-rule="evenodd">
        <g id="612_소통_작성하기_위킨찾기" transform="translate(-10.000000, -631.000000)">
            <g id="답글-달기-액션" transform="translate(0.000000, 520.000000)">
                <g id="Component/write">
                    <g id="위킨찾기" transform="translate(0.000000, 97.000000)">
                        <g id="Group-2" transform="translate(10.000000, 14.000000)">
                            <g id="Write/icons/ico-search">
                                <g>
                                    <path d="M15,15 L21.0434783,21.0434783" id="Stroke-1" stroke="#333333" stroke-width="2" stroke-linecap="round"></path>
                                    <g id="Stroke-3">
                                        <use fill="#00C58E" fill-rule="evenodd" xlink:href="#path-1"></use>
                                        <path stroke="#333333" stroke-width="2" d="M17,8.99953079 C17,4.58191489 13.417805,1 8.99976537,1 C4.58213053,1 1,4.58197939 1,8.99953079 C1,13.4178916 4.58200154,17 8.99976537,17 C13.417934,17 17,13.4179561 17,8.99953079 Z"></path>
                                    </g>
                                </g>
                            </g>
                        </g>
                    </g>
                </g>
            </g>
        </g>
    </g>
</svg>