<?xml version="1.0" encoding="UTF-8"?>
<svg width="23px" height="17px" viewBox="0 0 23 17" version="1.1" xmlns="http://www.w3.org/2000/svg" xmlns:xlink="http://www.w3.org/1999/xlink">
    <!-- Generator: Sketch 46.2 (44496) - http://www.bohemiancoding.com/sketch -->
    <title>icons/ico-mail@1x</title>
    <desc>Created with Sketch.</desc>
    <defs></defs>
    <g id="Symbols" stroke="none" stroke-width="1" fill="none" fill-rule="evenodd">
        <g id="icons/ico-mail" stroke="#FFFFFF">
            <g id="Group-3">
                <g>
                    <path d="M7.13333333,7 L1,14.6061035" id="Stroke-3" stroke-width="1.5" stroke-linecap="round"></path>
                    <path d="M22.1333333,7 L16,14.6061035" id="Stroke-3" stroke-width="1.5" stroke-linecap="round" transform="translate(19.066667, 10.803052) scale(-1, 1) translate(-19.066667, -10.803052) "></path>
                    <path d="M22,14.3574352 L22,1.74256481 C22,1.33313212 21.6657066,1 21.2511951,1 L1.74923946,1 C1.33456851,1 1,1.33329188 1,1.74256481 L1,14.3574352 C1,14.7669529 1.33438013,15.1 1.74923946,15.1 L21.2511951,15.1 C21.665895,15.1 22,14.7671127 22,14.3574352 Z" id="Stroke-5" stroke-width="2"></path>
                    <path d="M2,1 L10.2475501,8.7597039 C10.6305177,9.0285206 10.9960601,9.23333333 11.4824173,9.23333333 C11.9687746,9.23333333 12.4067284,9.05100849 12.7176718,8.7597039 L21.2111111,1.26743284" id="Stroke-7" stroke-width="1.5" stroke-linecap="round"></path>
                </g>
            </g>
        </g>
    </g>
</svg>