<?xml version="1.0" encoding="UTF-8"?>
<svg width="44px" height="44px" viewBox="0 0 44 44" version="1.1" xmlns="http://www.w3.org/2000/svg" xmlns:xlink="http://www.w3.org/1999/xlink">
    <!-- Generator: Sketch 46.2 (44496) - http://www.bohemiancoding.com/sketch -->
    <title>icon/ico-cate-dance</title>
    <desc>Created with Sketch.</desc>
    <defs></defs>
    <g id="Symbols" stroke="none" stroke-width="1" fill="none" fill-rule="evenodd">
        <g id="icon/ico-cate-dance">
            <g transform="translate(1.000000, 1.000000)">
                <path d="M21,42 C32.598,42 42,32.598 42,21 C42,9.402 32.598,0 21,0 C9.402,0 0,9.402 0,21 C0,32.598 9.402,42 21,42 Z" id="Stroke-1" stroke="#FFFFFF" stroke-width="2"></path>
                <g id="Group-4" transform="translate(7.000000, 8.000000)">
                    <path d="M13.3936,0.9062 C11.5596,0.9062 10.0776,2.3932 10.0776,4.2262 C10.0776,6.0612 11.5596,7.5472 13.3936,7.5472 C15.2316,7.5472 16.7136,6.0612 16.7136,4.2262 C16.7136,2.3932 15.2316,0.9062 13.3936,0.9062 M13.3936,2.4062 C14.3976,2.4062 15.2136,3.2222 15.2136,4.2262 C15.2136,5.2302 14.3976,6.0472 13.3936,6.0472 C12.3926,6.0472 11.5776,5.2302 11.5776,4.2262 C11.5776,3.2222 12.3926,2.4062 13.3936,2.4062" id="Fill-3" fill="#FFFFFF"></path>
                    <path d="M10.5781,10.8511 L4.5781,10.8511" id="Stroke-5" stroke="#FFFFFF" stroke-width="2" stroke-linecap="round" stroke-linejoin="round"></path>
                    <path d="M22.5781,10.8511 L15.5781,10.8511" id="Stroke-7" stroke="#FFFFFF" stroke-width="2" stroke-linecap="round" stroke-linejoin="round"></path>
                    <path d="M16.5781,26.8511 L16.5781,17.8511" id="Stroke-9" stroke="#FFFFFF" stroke-width="2" stroke-linecap="round" stroke-linejoin="round"></path>
                    <polyline id="Stroke-11" stroke="#FFFFFF" stroke-width="2" stroke-linecap="round" stroke-linejoin="round" points="10.5781 13.8511 10.5781 21.4851 19.3851 24.8591"></polyline>
                    <polygon id="Stroke-13" stroke="#FFFFFF" stroke-width="2" stroke-linecap="round" stroke-linejoin="round" points="10.578 17.851 16.578 17.851 16.578 10.851 10.578 10.851"></polygon>
                    <path d="M4.8955,16.3984 C4.8955,16.3984 2.5045,18.7884 5.5695,20.3434" id="Stroke-15" stroke="#FFFFFF" stroke-linecap="round" stroke-linejoin="round"></path>
                    <path d="M2.2305,15.7866 C2.2305,15.7866 -0.7195,19.1566 3.0925,21.3746" id="Stroke-16" stroke="#FFFFFF" stroke-linecap="round" stroke-linejoin="round"></path>
                    <path d="M24.25,5.6851 C23.631,5.6851 23.123,6.1301 23.107,6.6961 C23.091,7.2751 23.592,7.7621 24.229,7.7821 C24.244,7.7831 24.259,7.7831 24.273,7.7831 C24.89,7.7831 25.397,7.3381 25.413,6.7711 C25.432,6.1931 24.93,5.7071 24.293,5.6851 C24.279,5.6851 24.265,5.6851 24.25,5.6851" id="Fill-17" fill="#FFFFFF"></path>
                    <path d="M25.0264,6.4199 L25.1854,1.1129 C25.1854,1.1129 27.3024,2.2469 27.2314,4.6599" id="Stroke-18" stroke="#FFFFFF" stroke-linecap="round" stroke-linejoin="round"></path>
                    <path d="M22.8984,19.3281 C22.3774,19.3281 21.9494,19.7041 21.9354,20.1811 C21.9214,20.6701 22.3444,21.0801 22.8824,21.0971 C22.8954,21.0981 22.9084,21.0981 22.9194,21.0981 C23.4394,21.0981 23.8684,20.7231 23.8804,20.2451 C23.8964,19.7561 23.4734,19.3471 22.9354,19.3281 C22.9234,19.3281 22.9114,19.3281 22.8984,19.3281" id="Fill-19" fill="#FFFFFF"></path>
                    <path d="M23.5547,19.9482 L23.6897,15.4702 C23.6897,15.4702 25.4757,16.4272 25.4147,18.4632" id="Stroke-20" stroke="#FFFFFF" stroke-linecap="round" stroke-linejoin="round"></path>
                    <path d="M1.7324,5.9946 C1.2104,5.9946 0.7824,6.3706 0.7684,6.8476 C0.7544,7.3366 1.1774,7.7466 1.7154,7.7636 C1.7284,7.7646 1.7404,7.7646 1.7534,7.7646 C2.2724,7.7646 2.7014,7.3896 2.7134,6.9116 C2.7294,6.4226 2.3064,6.0136 1.7684,5.9946 C1.7554,5.9946 1.7444,5.9946 1.7324,5.9946" id="Fill-21" fill="#FFFFFF"></path>
                    <path d="M2.3877,6.6147 L2.5227,2.1367 C2.5227,2.1367 4.3087,3.0937 4.2477,5.1297" id="Stroke-22" stroke="#FFFFFF" stroke-linecap="round" stroke-linejoin="round"></path>
                    <path d="M9.9111,10.9346 L11.9951,6.5176 C11.9951,6.5176 13.1611,7.3516 14.8281,6.4346 L17.2451,10.9346" id="Stroke-23" stroke="#FFFFFF" stroke-width="1.5" stroke-linejoin="round"></path>
                </g>
            </g>
        </g>
    </g>
</svg>