<?xml version="1.0" encoding="UTF-8"?>
<svg width="18px" height="18px" viewBox="0 0 18 18" version="1.1" xmlns="http://www.w3.org/2000/svg" xmlns:xlink="http://www.w3.org/1999/xlink">
    <!-- Generator: Sketch 46.2 (44496) - http://www.bohemiancoding.com/sketch -->
    <title>icon/ico-warning@1x</title>
    <desc>Created with Sketch.</desc>
    <defs></defs>
    <g id="Symbols" stroke="none" stroke-width="1" fill="none" fill-rule="evenodd">
        <g id="icon/ico-warning">
            <g>
                <path d="M17.25,8.99983295 C17.25,4.44342724 13.5565304,0.75 8.99983294,0.75 C4.4436367,0.75 0.75,4.4435943 0.75,8.99983295 C0.75,13.5563583 4.44358935,17.25 8.99983294,17.25 C13.5565777,17.25 17.25,13.5565254 17.25,8.99983295 Z" id="Stroke-1" stroke="#9B9B9B" stroke-width="1.5"></path>
                <g id="Group-2" transform="translate(8.052632, 4.736842)">
                    <path d="M0.947368421,0.451978633 L0.947368421,5.63147368" id="Stroke-3" stroke="#9B9B9B" stroke-width="1.5" stroke-linecap="round"></path>
                    <path d="M1.89473684,8.52631579 C1.89473684,9.04928989 1.47086135,9.47368421 0.947368421,9.47368421 C0.423875497,9.47368421 0,9.04928989 0,8.52631579 C0,8.00334169 0.423875497,7.57894737 0.947368421,7.57894737 C1.47086135,7.57894737 1.89473684,8.00334169 1.89473684,8.52631579" id="Fill-5" fill="#9B9B9B"></path>
                </g>
            </g>
        </g>
    </g>
</svg>