<?xml version="1.0" encoding="UTF-8"?>
<svg width="24px" height="24px" viewBox="0 0 24 24" version="1.1" xmlns="http://www.w3.org/2000/svg" xmlns:xlink="http://www.w3.org/1999/xlink">
    <!-- Generator: Sketch 46.2 (44496) - http://www.bohemiancoding.com/sketch -->
    <title>Overrides/Icons/Icon 2/ico-alarm@1x</title>
    <desc>Created with Sketch.</desc>
    <defs></defs>
    <g id="Symbols" stroke="none" stroke-width="1" fill="none" fill-rule="evenodd">
        <g id="Overrides/Icons/Icon-2/ico-alarm">
            <g id="action/icon/ico-alarm" transform="translate(3.000000, 0.000000)">
                <path d="M8.02145027,21 C8.00854214,21.0910477 8,21.1836201 8,21.2785885 C8,22.2293618 8.67179195,23 9.5,23 C10.3285877,23 11,22.2293618 11,21.2785885 C11,21.1836201 10.9916477,21.0910477 10.9789294,21 L8.02145027,21 Z" id="Stroke-1" stroke="#333333" stroke-width="2"></path>
                <path d="M8.00082246,3 C8.00082246,2.05780846 7.9168759,0 9.44518682,0 L9.54929503,0 C11.1787185,0 10.9936594,2.05780846 10.9936594,3 L8.00082246,3 Z" id="Fill-5" fill="#333333"></path>
                <path d="M18.9148039,19.0588152 C18.9148039,19.0588152 19,19.2559931 19,19.3689512 C19,19.7178042 18.6994824,20 18.3294517,20 L0.670548342,20 C0.300517557,20 0,19.7178042 0,19.3689512 C0,19.2232631 0.0546780886,19.0903477 0.143265069,18.9837759 L3.07256949,15.0470052 L3.07935127,8.92132141 C3.15479855,5.63994741 5.9976353,3 9.50042386,3 C13.0040601,3 15.8460492,5.63994741 15.9219203,8.92132141 L15.9287021,15.0470052 L18.9148039,19.0588152 Z" id="Stroke-3" stroke="#333333" stroke-width="2"></path>
            </g>
        </g>
    </g>
</svg>