<?xml version="1.0" encoding="UTF-8"?>
<svg width="34px" height="37px" viewBox="0 0 34 37" version="1.1" xmlns="http://www.w3.org/2000/svg" xmlns:xlink="http://www.w3.org/1999/xlink">
    <!-- Generator: Sketch 46.2 (44496) - http://www.bohemiancoding.com/sketch -->
    <title>icon/myinfo-mypost@1x</title>
    <desc>Created with Sketch.</desc>
    <defs></defs>
    <g id="Symbols" stroke="none" stroke-width="1" fill="none" fill-rule="evenodd">
        <g id="icon/myinfo-mypost" stroke-width="2" stroke="#323232">
            <g>
                <path d="M32.0660509,33.923893 L32.0660509,3.01438903 C32.0660509,1.925997 31.0419226,1 29.7319224,1 L3.33507758,1 C2.02423647,1 1,1.92591275 1,3.01438903 L1,33.923893 C1,35.0134039 2.02438653,35.9399986 3.33507758,35.9399986 L29.7319224,35.9399986 C31.0417725,35.9399986 32.0660509,35.0133195 32.0660509,33.923893 Z" id="Stroke-1"></path>
                <g id="Group-5" transform="translate(6.091115, 8.961274)" stroke-linecap="round">
                    <g id="Group-6">
                        <path d="M2,0 L19.0497704,0 L19.0497704,9.32587341e-15 C20.1543399,9.12296728e-15 21.0497704,0.8954305 21.0497704,2 L21.0497704,4.52297144 L21.0497704,4.52297144 C21.0497704,5.62754094 20.1543399,6.52297144 19.0497704,6.52297144 L2,6.52297144 L2,6.52297144 C0.8954305,6.52297144 -6.97015661e-15,5.62754094 -7.10542736e-15,4.52297144 L-2.94913751e-15,2 L-1.33226763e-15,2 C-4.86483587e-16,0.8954305 0.8954305,1.97926296e-15 2,1.77635684e-15 Z" id="Stroke-5"></path>
                        <path d="M0,12.2305715 L21.0497704,12.2305715" id="Stroke-9"></path>
                        <path d="M0,18.7535429 L11.7878714,18.7535429" id="Stroke-11"></path>
                    </g>
                </g>
            </g>
        </g>
    </g>
</svg>