<?xml version="1.0" encoding="UTF-8"?>
<svg width="19px" height="27px" viewBox="0 0 19 27" version="1.1" xmlns="http://www.w3.org/2000/svg" xmlns:xlink="http://www.w3.org/1999/xlink">
    <!-- Generator: Sketch 46.2 (44496) - http://www.bohemiancoding.com/sketch -->
    <title>icons/1184_ico-place@1x</title>
    <desc>Created with Sketch.</desc>
    <defs></defs>
    <g id="Symbols" stroke="none" stroke-width="1" fill="none" fill-rule="evenodd">
        <g id="icons/1184_ico-place" stroke-width="2" stroke="#00C58E">
            <g id="icons/ico-place">
                <path d="M17.2316867,12.1690419 C17.7351335,11.1318934 18,10.0243723 18,8.89172267 C18,4.54824852 14.2085686,1 9.49952715,1 C4.79069453,1 1,4.5480468 1,8.89172267 C1,10.0351767 1.26903175,11.1473624 1.77465174,12.1671514 L1.91277708,12.4353827 C1.93528855,12.4766238 1.93528855,12.4766238 1.95553781,12.5144411 C1.96718928,12.5362826 1.96718928,12.5362826 1.97812673,12.5568339 C2.01404404,12.6243011 2.03126326,12.6558672 2.04167225,12.6739801 L9.4995496,25.0612715 L16.9551265,12.6784498 C16.9701509,12.6531389 16.9849537,12.6261342 17.0190033,12.5622246 L17.0250764,12.5508262 C17.0543482,12.4959338 17.0543482,12.4959338 17.0829106,12.4442128 L17.2316867,12.1690419 Z" id="Stroke-1"></path>
                <path d="M12.3888889,9.63461538 C12.3888889,8.18293772 11.186675,7 9.69444444,7 C8.20274889,7 7,8.18327118 7,9.63461538 C7,11.0859596 8.20274889,12.2692308 9.69444444,12.2692308 C11.186675,12.2692308 12.3888889,11.086293 12.3888889,9.63461538 Z" id="Stroke-3"></path>
            </g>
        </g>
    </g>
</svg>