<?xml version="1.0" encoding="UTF-8"?>
<svg width="44px" height="44px" viewBox="0 0 44 44" version="1.1" xmlns="http://www.w3.org/2000/svg" xmlns:xlink="http://www.w3.org/1999/xlink">
    <!-- Generator: Sketch 46.2 (44496) - http://www.bohemiancoding.com/sketch -->
    <title>icon/ico-cate-outdoor</title>
    <desc>Created with Sketch.</desc>
    <defs>
        <path d="M11.9648316,0 C12.0705279,0.914520576 12.125,1.84653437 12.125,2.79248508 C12.125,7.73654051 10.6367274,12.3001791 8.12402819,15.9753 L0.4932,15.9753 L0.4932,0 L11.9648316,0 Z" id="path-1"></path>
    </defs>
    <g id="Symbols" stroke="none" stroke-width="1" fill="none" fill-rule="evenodd">
        <g id="icon/ico-cate-outdoor">
            <g transform="translate(1.000000, 1.000000)">
                <path d="M21,42 C32.598,42 42,32.598 42,21 C42,9.402 32.598,0 21,0 C9.402,0 0,9.402 0,21 C0,32.598 9.402,42 21,42 Z" id="Stroke-1" stroke="#FFFFFF" stroke-width="2"></path>
                <g id="Group-28" transform="translate(2.000000, 6.000000)">
                    <path d="M32.171,4.156 C32.979,4.156 33.707,4.635 34.026,5.375 C34.094,5.529 34.225,5.646 34.383,5.697 C34.546,5.747 34.721,5.724 34.861,5.635 C35.136,5.466 35.449,5.347 35.775,5.347 C36.606,5.347 37.299,5.682 37.463,6.682 L30.236,6.682 C30.182,6.682 30.152,6.335 30.152,6.137 C30.152,5.029 31.06,4.156 32.171,4.156 M29.849,7.682 L38.068,7.682 C38.367,7.682 38.615,7.559 38.645,7.263 C38.65,7.174 38.656,7.135 38.656,7.049 C38.656,5.465 37.363,4.202 35.775,4.202 C35.44,4.202 35.109,4.272 34.799,4.383 C34.215,3.524 33.236,3 32.171,3 C30.423,3 29,4.421 29,6.163 C29,6.656 29.111,7.027 29.331,7.466 C29.43,7.661 29.627,7.682 29.849,7.682" id="Fill-3" fill="#FFFFFF"></path>
                    <path d="M3.17,4.156 C3.978,4.156 4.707,4.635 5.025,5.375 C5.09,5.529 5.222,5.646 5.383,5.697 C5.543,5.747 5.718,5.724 5.861,5.635 C6.133,5.466 6.447,5.347 6.772,5.347 C7.603,5.347 8.299,5.682 8.465,6.682 L1.234,6.682 C1.18,6.682 1.152,6.334 1.152,6.137 C1.152,5.029 2.057,4.156 3.17,4.156 M0.846,7.682 L9.068,7.682 C9.366,7.682 9.615,7.56 9.643,7.264 C9.65,7.174 9.654,7.135 9.654,7.049 C9.654,5.465 8.361,4.202 6.772,4.202 C6.438,4.202 6.108,4.272 5.796,4.383 C5.214,3.524 4.236,3 3.17,3 C1.42,3 0,4.421 0,6.163 C0,6.656 0.109,7.027 0.328,7.466 C0.429,7.661 0.629,7.682 0.846,7.682" id="Fill-5" fill="#FFFFFF"></path>
                    <polyline id="Stroke-7" stroke="#FFFFFF" stroke-width="1.5" points="33.121582 30.5932617 27.4053 19.8585 19.9033 6.7325 12.4033 19.9495 7.9793 13.3745 1.1353 24.8125"></polyline>
                    <g id="Group-11" transform="translate(27.000000, 11.000000)">
                        <mask id="mask-2" fill="white">
                            <use xlink:href="#path-1"></use>
                        </mask>
                        <g id="Clip-10"></g>
                        <polyline id="Stroke-9" stroke="#FFFFFF" stroke-width="1.5" mask="url(#mask-2)" points="0.4932 8.7163 4.6922 1.4633 8.8892 8.7193 13.0912 15.9753"></polyline>
                    </g>
                    <polyline id="Stroke-12" stroke="#FFFFFF" points="5.1006 17.9424 8.1616 20.3384 10.6906 16.8274"></polyline>
                    <polyline id="Stroke-14" stroke="#FFFFFF" points="28.5869 17.9424 31.6479 20.3384 34.1789 16.8274"></polyline>
                    <polyline id="Stroke-16" stroke="#FFFFFF" points="16.376 12.7002 18.3 15.6512 20.995 12.9952 24.334 14.3222"></polyline>
                    <path d="M22.834,13.6675 L21.584,13.8345 L21.686,15.8645 C21.686,16.5295 21.146,17.0715 20.479,17.0715 L18.661,17.0715 C17.34,17.0715 16.263,18.1465 16.263,19.4665 L16.263,19.5035 C16.263,20.8235 17.34,21.8985 18.661,21.8985 L23.597,21.8985 C24.265,21.8985 24.804,22.4395 24.804,23.1055 L24.804,24.1815 C24.804,24.8465 24.265,25.3895 23.597,25.3895 L17.093,25.3895 C15.772,25.3895 14.698,26.4635 14.698,27.7825 L14.698,28.1175 C14.698,29.4395 15.772,30.5125 17.093,30.5125 L25.183,30.5125 C25.507,30.5125 25.775,30.2475 25.775,29.9195 C25.775,29.5905 25.507,29.3245 25.183,29.3245 L17.093,29.3245 C16.43,29.3245 15.887,28.7835 15.887,28.1175 L15.887,27.7825 C15.887,27.1175 16.43,26.5775 17.093,26.5775 L23.597,26.5775 C24.919,26.5775 25.991,25.5005 25.991,24.1815 L25.991,23.1055 C25.991,21.7855 24.919,20.7085 23.597,20.7085 L18.661,20.7085 C17.995,20.7085 17.454,20.1685 17.454,19.5035 L17.454,19.4665 C17.454,18.8015 17.995,18.2595 18.661,18.2595 L20.479,18.2595 C21.8,18.2595 22.872,17.1855 22.872,15.8645 L22.834,13.6675 Z" id="Fill-18" fill="#FFFFFF"></path>
                    <path d="M25.627,27.876 C24.523,27.876 23.627,28.772 23.627,29.876 C23.627,30.98 24.523,31.876 25.627,31.876 C26.731,31.876 27.627,30.98 27.627,29.876 C27.627,28.772 26.731,27.876 25.627,27.876 M25.627,28.876 C26.179,28.876 26.627,29.325 26.627,29.876 C26.627,30.427 26.179,30.876 25.627,30.876 C25.075,30.876 24.627,30.427 24.627,29.876 C24.627,29.325 25.075,28.876 25.627,28.876" id="Fill-20" fill="#FFFFFF"></path>
                    <polyline id="Stroke-22" stroke="#FFFFFF" stroke-linecap="round" stroke-linejoin="round" points="19.833 7 19.833 0 25.667 2 19.917 3.583"></polyline>
                    <path d="M8.5,25.25 C8.5,26.493 7.492,27.5 6.25,27.5 C5.008,27.5 4,26.493 4,25.25 C4,24.007 5.008,23 6.25,23 C7.489,23 8.5,24.008 8.5,25.25 Z" id="Stroke-24" stroke="#FFFFFF"></path>
                    <path d="M3.667,29.5 L8.792,29.5 L11.334,23.333 C11.334,23.333 12.542,22.063 13.105,24 L10.292,30.625 L8.917,34.375" id="Stroke-26" stroke="#FFFFFF"></path>
                </g>
            </g>
        </g>
    </g>
</svg>