<?xml version="1.0" encoding="UTF-8"?>
<svg width="44px" height="44px" viewBox="0 0 44 44" version="1.1" xmlns="http://www.w3.org/2000/svg" xmlns:xlink="http://www.w3.org/1999/xlink">
    <!-- Generator: Sketch 46.2 (44496) - http://www.bohemiancoding.com/sketch -->
    <title>icon/ico-cate-music</title>
    <desc>Created with Sketch.</desc>
    <defs></defs>
    <g id="Symbols" stroke="none" stroke-width="1" fill="none" fill-rule="evenodd">
        <g id="icon/ico-cate-music">
            <g transform="translate(1.000000, 1.000000)">
                <path d="M21,42 C32.598,42 42,32.598 42,21 C42,9.402 32.598,0 21,0 C9.402,0 0,9.402 0,21 C0,32.598 9.402,42 21,42 Z" id="Stroke-1" stroke="#FFFFFF" stroke-width="2"></path>
                <path d="M11.0918,23.0107 C9.5228,23.0107 8.2498,24.1777 8.2498,25.6167 C8.2498,27.0577 9.5228,28.2247 11.0918,28.2247 C12.6608,28.2247 13.9318,27.0577 13.9318,25.6167 C13.9318,24.1777 12.6608,23.0107 11.0918,23.0107 M11.0918,24.5107 C11.8308,24.5107 12.4318,25.0077 12.4318,25.6167 C12.4318,26.2277 11.8308,26.7247 11.0918,26.7247 C10.3528,26.7247 9.7498,26.2277 9.7498,25.6167 C9.7498,25.0077 10.3528,24.5107 11.0918,24.5107" id="Fill-3" fill="#FFFFFF"></path>
                <path d="M21.1807,18.7832 C19.6127,18.7832 18.3397,19.9502 18.3397,21.3882 C18.3397,22.8292 19.6127,23.9962 21.1807,23.9962 C22.7477,23.9962 24.0207,22.8292 24.0207,21.3882 C24.0207,19.9502 22.7477,18.7832 21.1807,18.7832 M21.1807,20.2832 C21.9187,20.2832 22.5207,20.7792 22.5207,21.3882 C22.5207,21.9992 21.9187,22.4962 21.1807,22.4962 C20.4417,22.4962 19.8397,21.9992 19.8397,21.3882 C19.8397,20.7792 20.4417,20.2832 21.1807,20.2832" id="Fill-5" fill="#FFFFFF"></path>
                <polyline id="Stroke-7" stroke="#FFFFFF" stroke-width="1.5" stroke-linecap="round" stroke-linejoin="round" points="12.9531 24.7744 12.9531 11.5804 23.2411 10.0004 23.2411 20.5294"></polyline>
                <path d="M12.9531,14.7119 L23.2411,13.4889" id="Stroke-9" stroke="#FFFFFF" stroke-width="1.5" stroke-linecap="round" stroke-linejoin="round"></path>
                <path d="M27.4521,27.4131 C26.0711,27.4131 24.9501,28.4401 24.9501,29.7061 C24.9501,30.9741 26.0711,32.0001 27.4521,32.0001 C28.8331,32.0001 29.9501,30.9741 29.9501,29.7061 C29.9501,28.4401 28.8331,27.4131 27.4521,27.4131 M27.4521,28.9131 C27.9931,28.9131 28.4501,29.2761 28.4501,29.7061 C28.4501,30.1361 27.9931,30.5001 27.4521,30.5001 C26.9091,30.5001 26.4501,30.1361 26.4501,29.7061 C26.4501,29.2761 26.9091,28.9131 27.4521,28.9131" id="Fill-11" fill="#FFFFFF"></path>
                <path d="M29.0889,28.9648 L29.0889,17.3558 C29.0889,17.3558 33.7499,19.6828 33.7499,24.9608" id="Stroke-13" stroke="#FFFFFF" stroke-width="1.5" stroke-linecap="round" stroke-linejoin="round"></path>
            </g>
        </g>
    </g>
</svg>