<?xml version="1.0" encoding="UTF-8"?>
<svg width="17px" height="15px" viewBox="0 0 17 15" version="1.1" xmlns="http://www.w3.org/2000/svg" xmlns:xlink="http://www.w3.org/1999/xlink">
    <!-- Generator: Sketch 46.2 (44496) - http://www.bohemiancoding.com/sketch -->
    <title>icon/1188_ico-clock@1x</title>
    <desc>Created with Sketch.</desc>
    <defs></defs>
    <g id="Symbols" stroke="none" stroke-width="1" fill="none" fill-rule="evenodd">
        <g id="icon/1188_ico-clock">
            <g id="icon/ico-clock">
                <path d="M15.9686313,3.65749362 C16.6879438,2.94290816 16.6890063,1.78223533 15.9686313,1.06553571 C15.2493188,0.349893176 14.0826938,0.349893176 13.3644438,1.06553571 C13.3474438,1.0813919 15.9516313,3.67440689 15.9686313,3.65749362 Z" id="Stroke-9" stroke="#555555" fill="#555555" stroke-linecap="round" stroke-linejoin="round"></path>
                <path d="M1.0707875,3.89597066 C0.351475,3.18244228 0.3504125,2.01965529 1.0707875,1.30295568 C1.7911625,0.586256059 2.9577875,0.587313138 3.674975,1.30295568 C3.691975,1.31881186 1.0856625,3.91182685 1.0707875,3.89597066 Z" id="Stroke-11" stroke="#555555" fill="#555555" stroke-linecap="round" stroke-linejoin="round"></path>
                <g id="Group" transform="translate(2.125000, 1.062500)">
                    <path d="M6.526725,5.54862278 C5.95645227,5.54862278 5.49165682,6.00554521 5.49165682,6.5712587 C5.49165682,7.13582702 5.95645227,7.59274946 6.526725,7.59274946 C7.09931591,7.59274946 7.56295227,7.13582702 7.56295227,6.5712587 C7.56295227,6.00554521 7.09931591,5.54862278 6.526725,5.54862278" id="Fill-1" fill="#555555"></path>
                    <path d="M12.1794955,6.57080064 C12.1794955,9.65474077 9.64804091,12.1557899 6.52660909,12.1557899 C3.40517727,12.1557899 0.872563636,9.65474077 0.872563636,6.57080064 C0.872563636,3.4868605 3.40517727,0.986956566 6.52660909,0.986956566 C9.64804091,0.986956566 12.1794955,3.4868605 12.1794955,6.57080064 Z" id="Stroke-3" stroke="#555555" stroke-width="1.5" stroke-linecap="round"></path>
                    <path d="M6.526725,6.44219816 L6.526725,3.65027612" id="Stroke-5" stroke="#555555" stroke-linecap="round"></path>
                    <path d="M8.59361591,6.57080064 L6.42959318,6.57080064" id="Stroke-7" stroke="#555555" stroke-linecap="round"></path>
                    <path d="M1.18169318,12.8580075 L3.06521591,10.9959627" id="Stroke-13" stroke="#555555" stroke-width="1.5" stroke-linecap="round"></path>
                    <path d="M11.932725,12.7573472 L10.0468841,10.8953023" id="Stroke-15" stroke="#555555" stroke-width="1.5" stroke-linecap="round"></path>
                </g>
            </g>
        </g>
    </g>
</svg>