<?xml version="1.0" encoding="UTF-8"?>
<svg width="39px" height="39px" viewBox="0 0 39 39" version="1.1" xmlns="http://www.w3.org/2000/svg" xmlns:xlink="http://www.w3.org/1999/xlink">
    <!-- Generator: Sketch 46.2 (44496) - http://www.bohemiancoding.com/sketch -->
    <title>icon/myinfo-mywekin@1x</title>
    <desc>Created with Sketch.</desc>
    <defs>
        <path d="M10.8889461,4.20800454 C10.8889461,2.99469401 11.8697978,2.00910707 13.075621,2.00910707 C14.2806722,2.00910707 15.2613524,2.99469401 15.2613524,4.20800454 C15.2613524,4.88824093 14.2194333,6.27752371 13.075621,7.43099122 C11.9311225,6.27752371 10.8889461,4.88824093 10.8889461,4.20800454 Z M25.8640881,8.17533877 C25.4747836,7.78249114 24.8424962,7.78249114 24.4525914,8.17533877 L19.1321829,13.5268874 L14.487718,8.8539746 C15.5588843,7.77884543 17.2586498,5.81949788 17.2586498,4.20800454 C17.2586498,1.88879859 15.3819433,5.33518735e-05 13.075621,5.33518735e-05 C10.7688698,5.33518735e-05 8.89173446,1.88879859 8.89173446,4.20800454 C8.89173446,6.24755774 11.6136922,8.84517155 12.3360368,9.4978428 C12.3601379,9.52896472 12.3715451,9.56648888 12.4001919,9.59529889 L19.1321829,16.3682303 L25.8640881,9.59529889 C26.2540787,9.20298478 26.2540787,8.56694153 25.8640881,8.17533877 Z" id="path-1"></path>
        <path d="M11.9152038,11.449232 L10.5030209,10.0282938 L7.02466835,13.5268429 L1.70468867,8.17538323 C1.31469806,7.7825356 0.682153358,7.7825356 0.292162748,8.17538323 C-0.0973990185,8.56689707 -0.0973990185,9.20294032 0.292162748,9.59525443 L7.02466835,16.3681859 L11.9152038,11.449232 Z" id="path-2"></path>
    </defs>
    <g id="Symbols" stroke="none" stroke-width="1" fill="none" fill-rule="evenodd">
        <g id="icon/myinfo-mywekin">
            <g>
                <path d="M38,19.4989834 C38,9.28312964 29.7162226,1 19.4994916,1 C9.28362829,1 1,9.28327879 1,19.4989834 C1,29.7164229 9.28333,38 19.4994916,38 C29.7165209,38 38,29.7165721 38,19.4989834 Z" id="Stroke-3" stroke="#333333" stroke-width="2"></path>
                <g id="Page-1" transform="translate(6.500000, 10.500000)">
                    <g id="Stroke-1">
                        <use fill="#333333" fill-rule="evenodd" xlink:href="#path-1"></use>
                        <path d="M10.8889461,4.20800454 C10.8889461,2.99469401 11.8697978,2.00910707 13.075621,2.00910707 C14.2806722,2.00910707 15.2613524,2.99469401 15.2613524,4.20800454 C15.2613524,4.88824093 14.2194333,6.27752371 13.075621,7.43099122 C11.9311225,6.27752371 10.8889461,4.88824093 10.8889461,4.20800454 Z M25.8640881,8.17533877 C25.4747836,7.78249114 24.8424962,7.78249114 24.4525914,8.17533877 L19.1321829,13.5268874 L14.487718,8.8539746 C15.5588843,7.77884543 17.2586498,5.81949788 17.2586498,4.20800454 C17.2586498,1.88879859 15.3819433,5.33518735e-05 13.075621,5.33518735e-05 C10.7688698,5.33518735e-05 8.89173446,1.88879859 8.89173446,4.20800454 C8.89173446,6.24755774 11.6136922,8.84517155 12.3360368,9.4978428 C12.3601379,9.52896472 12.3715451,9.56648888 12.4001919,9.59529889 L19.1321829,16.3682303 L25.8640881,9.59529889 C26.2540787,9.20298478 26.2540787,8.56694153 25.8640881,8.17533877 Z"></path>
                    </g>
                    <g id="Stroke-3">
                        <use fill="#333333" fill-rule="evenodd" xlink:href="#path-2"></use>
                        <path d="M11.9152038,11.449232 L10.5030209,10.0282938 L7.02466835,13.5268429 L1.70468867,8.17538323 C1.31469806,7.7825356 0.682153358,7.7825356 0.292162748,8.17538323 C-0.0973990185,8.56689707 -0.0973990185,9.20294032 0.292162748,9.59525443 L7.02466835,16.3681859 L11.9152038,11.449232 Z"></path>
                    </g>
                </g>
            </g>
        </g>
    </g>
</svg>