<?xml version="1.0" encoding="UTF-8"?>
<svg width="44px" height="44px" viewBox="0 0 44 44" version="1.1" xmlns="http://www.w3.org/2000/svg" xmlns:xlink="http://www.w3.org/1999/xlink">
    <!-- Generator: Sketch 46.2 (44496) - http://www.bohemiancoding.com/sketch -->
    <title>icon/ico-cate-art</title>
    <desc>Created with Sketch.</desc>
    <defs></defs>
    <g id="Symbols" stroke="none" stroke-width="1" fill="none" fill-rule="evenodd">
        <g id="icon/ico-cate-art">
            <g transform="translate(1.000000, 1.000000)">
                <path d="M12,26.1309 C12,26.1309 13.102,27.5559 16.343,26.7199 L14.786,25.2919 C14.786,25.2919 14.153,25.6229 13.446,25.8069 C12.871,25.9579 12.224,26.0809 12,26.1309" id="Fill-1" fill="#FFFFFF"></path>
                <path d="M21,42 C32.598,42 42,32.598 42,21 C42,9.402 32.598,0 21,0 C9.402,0 0,9.402 0,21 C0,32.598 9.402,42 21,42 Z" id="Stroke-3" stroke="#FFFFFF" stroke-width="2"></path>
                <path d="M20.2813,8.7119 C12.8443,8.7119 6.8123,14.0849 6.8123,20.7119 C6.8123,27.3399 12.8443,32.7119 20.2813,32.7119 C27.7213,32.7119 33.7513,27.3399 33.7513,20.7119 C33.7513,19.2069 33.4393,17.7649 32.8713,16.4379 C32.7903,16.2499 32.6203,16.1549 32.4483,16.1549 C32.2873,16.1549 32.1243,16.2379 32.0303,16.4039 C31.2083,17.8579 29.5043,18.8589 27.5293,18.8589 C24.7503,18.8589 22.4993,16.8829 22.4993,14.4479 C22.4993,12.7069 23.6483,11.2029 25.3163,10.4859 C25.7213,10.3119 25.7023,9.7169 25.2893,9.5699 C23.7403,9.0169 22.0513,8.7119 20.2813,8.7119 M20.2813,10.2119 C21.1143,10.2119 21.9353,10.2859 22.7383,10.4339 C21.6433,11.5099 20.9993,12.9399 20.9993,14.4479 C20.9993,17.7079 23.9283,20.3589 27.5293,20.3589 C29.2443,20.3589 30.8443,19.7599 32.0373,18.7249 C32.1793,19.3759 32.2513,20.0399 32.2513,20.7119 C32.2513,26.5019 26.8813,31.2119 20.2813,31.2119 C13.6813,31.2119 8.3123,26.5019 8.3123,20.7119 C8.3123,14.9219 13.6813,10.2119 20.2813,10.2119" id="Fill-5" fill="#FFFFFF"></path>
                <path d="M33.7617,9.8208 L33.5517,9.5708 C33.2637,9.2238 32.7457,9.1778 32.4007,9.4688 L17.9927,21.2478 L19.4647,23.0008 L33.6207,11.4318 C34.1297,11.0688 34.5227,10.5888 33.7617,9.8208 Z" id="Stroke-7" stroke="#FFFFFF" stroke-width="1.5" fill="#9418AE" stroke-linecap="round" stroke-linejoin="round"></path>
                <path d="M22,20.7529 L20.528,18.9999" id="Stroke-9" stroke="#FFFFFF" stroke-width="1.5"></path>
                <path d="M15.8438,21.8315 C16.3558,20.9055 17.8658,21.2575 18.5428,22.0695 C19.2258,22.8805 19.1378,24.1115 18.3078,24.7695 C17.1478,25.6905 14.2498,27.8105 12.4758,25.8275 C12.4758,25.8275 13.4328,25.5525 13.7048,25.4685 C15.1418,25.0245 15.7298,23.3325 15.8438,21.8315 Z" id="Stroke-11" stroke="#FFFFFF" stroke-width="1.5" stroke-linecap="round" stroke-linejoin="round"></path>
                <path d="M19.3477,13.1479 C19.3477,13.6689 18.9247,14.0919 18.4027,14.0919 C17.8817,14.0919 17.4587,13.6689 17.4587,13.1479 C17.4587,12.6269 17.8817,12.2039 18.4027,12.2039 C18.9247,12.2039 19.3477,12.6269 19.3477,13.1479 Z" id="Stroke-13" stroke="#FFFFFF" stroke-width="0.7" stroke-linecap="round" stroke-linejoin="round"></path>
                <path d="M29.582,24.0405 C29.303,24.4795 28.718,24.6085 28.277,24.3275 C27.84,24.0465 27.71,23.4615 27.991,23.0225 C28.272,22.5835 28.856,22.4565 29.295,22.7365 C29.736,23.0185 29.863,23.6015 29.582,24.0405 Z" id="Stroke-15" stroke="#FFFFFF" stroke-width="0.7" stroke-linecap="round" stroke-linejoin="round"></path>
                <path d="M25.8066,26.8726 C25.5256,27.3116 24.9416,27.4406 24.5016,27.1596 C24.0636,26.8786 23.9356,26.2946 24.2146,25.8546 C24.4966,25.4156 25.0806,25.2886 25.5196,25.5686 C25.9586,25.8496 26.0876,26.4336 25.8066,26.8726 Z" id="Stroke-17" stroke="#FFFFFF" stroke-width="0.7" stroke-linecap="round" stroke-linejoin="round"></path>
                <path d="M21.0859,28.7607 C20.8069,29.1997 20.2209,29.3287 19.7819,29.0477 C19.3429,28.7667 19.2149,28.1827 19.4959,27.7427 C19.7759,27.3037 20.3599,27.1767 20.7999,27.4567 C21.2379,27.7377 21.3669,28.3217 21.0859,28.7607 Z" id="Stroke-19" stroke="#FFFFFF" stroke-width="0.7" stroke-linecap="round" stroke-linejoin="round"></path>
                <path d="M14.6289,15.98 C14.6289,16.501 14.2049,16.924 13.6829,16.924 C13.1609,16.924 12.7379,16.501 12.7379,15.98 C12.7379,15.459 13.1609,15.036 13.6829,15.036 C14.2049,15.036 14.6289,15.459 14.6289,15.98 Z" id="Stroke-21" stroke="#FFFFFF" stroke-width="0.7" stroke-linecap="round" stroke-linejoin="round"></path>
                <path d="M12.7393,20.7002 C12.7393,21.2212 12.3163,21.6432 11.7953,21.6432 C11.2733,21.6432 10.8513,21.2212 10.8513,20.7002 C10.8513,20.1792 11.2733,19.7562 11.7953,19.7562 C12.3163,19.7562 12.7393,20.1792 12.7393,20.7002 Z" id="Stroke-23" stroke="#FFFFFF" stroke-width="0.7" stroke-linecap="round" stroke-linejoin="round"></path>
            </g>
        </g>
    </g>
</svg>