<?xml version="1.0" encoding="UTF-8"?>
<svg width="26px" height="26px" viewBox="0 0 26 26" version="1.1" xmlns="http://www.w3.org/2000/svg" xmlns:xlink="http://www.w3.org/1999/xlink">
    <!-- Generator: Sketch 46.2 (44496) - http://www.bohemiancoding.com/sketch -->
    <title>icons/1185_ico-money@1x</title>
    <desc>Created with Sketch.</desc>
    <defs></defs>
    <g id="Symbols" stroke="none" stroke-width="1" fill="none" fill-rule="evenodd">
        <g id="icons/1185_ico-money">
            <g id="Page-1">
                <path d="M13,25 C19.6277153,25 25,19.6277153 25,13 C25,6.37228475 19.6277153,1 13,1 C6.37228475,1 1,6.37228475 1,13 C1,19.6277153 6.37228475,25 13,25 Z" id="Stroke-1" stroke="#00C58E" stroke-width="2"></path>
                <path d="M13.7578,13.5615 L13.3798,15.4955 C14.3038,15.4115 14.6398,15.0605 14.6398,14.5145 C14.6398,13.9965 14.4578,13.7715 13.7578,13.5615 L13.7578,13.5615 Z M13.0578,11.1655 L13.3938,9.3875 C12.5388,9.4155 12.2028,9.7375 12.2028,10.2555 C12.2028,10.7325 12.3708,10.9705 13.0578,11.1655 L13.0578,11.1655 Z M11.9228,17.2315 C11.1528,17.1475 10.4938,16.9795 10.0598,16.7275 L10.0598,14.9345 C10.7328,15.2005 11.4608,15.3965 12.2448,15.4805 L12.6648,13.3095 L12.5948,13.2955 C10.9848,12.9875 10.0318,12.2735 10.0318,10.4655 C10.0318,8.8135 11.1248,7.5945 13.5058,7.5945 L13.7438,7.5945 L13.8978,6.7675 L15.0468,6.7675 L14.8638,7.6645 C15.5368,7.7625 15.9708,7.9305 16.3208,8.0845 L16.3208,9.8635 C15.8448,9.6955 15.2288,9.5415 14.5288,9.4575 L14.1638,11.4185 L14.1918,11.4185 C15.9848,11.7835 16.8818,12.4265 16.8818,14.2195 C16.8818,16.2235 15.5928,17.3015 13.1548,17.3015 L13.0438,17.3015 L12.7778,18.7585 L11.6288,18.7585 L11.9228,17.2315 Z" id="Fill-3" fill="#00CC9F"></path>
            </g>
        </g>
    </g>
</svg>