<?xml version="1.0" encoding="UTF-8"?>
<svg width="44px" height="44px" viewBox="0 0 44 44" version="1.1" xmlns="http://www.w3.org/2000/svg" xmlns:xlink="http://www.w3.org/1999/xlink">
    <!-- Generator: Sketch 46.2 (44496) - http://www.bohemiancoding.com/sketch -->
    <title>icon/ico-cate-extreme</title>
    <desc>Created with Sketch.</desc>
    <defs></defs>
    <g id="Symbols" stroke="none" stroke-width="1" fill="none" fill-rule="evenodd">
        <g id="icon/ico-cate-extreme">
            <g transform="translate(1.000000, 1.000000)">
                <path d="M21,42 C32.598,42 42,32.598 42,21 C42,9.402 32.598,0 21,0 C9.401,0 0,9.402 0,21 C0,32.598 9.401,42 21,42 Z" id="Stroke-1" stroke="#FFFFFF" stroke-width="2"></path>
                <g id="Group-3" transform="translate(9.000000, 5.000000)">
                    <path d="M20.4169308,10.5352687 C20.1207593,10.7887915 19.9442411,10.9439854 19.5284163,10.9439854 C19.1137762,10.9439854 18.9348886,10.7887915 18.6422712,10.5352687 C18.3840096,10.3125477 18.0534822,10.0270384 17.5369591,9.89672291 C17.4054589,7.3686029 16.8297015,5.01937047 15.8914302,3.23641798 C15.6130289,2.708048 15.3085646,2.24009702 14.9851453,1.83730376 C18.4385052,3.04094478 21.0151973,6.14126816 21.4310221,9.92160132 C20.9654405,10.0602096 20.6586068,10.3267639 20.4169308,10.5352687 L20.4169308,10.5352687 Z M14.1594192,20.499663 L13.601432,19.37895 C13.5931392,19.3671031 13.5860311,19.3540716 13.5801077,19.34104 C13.9675,18.9157378 14.2068066,18.3506425 14.2068066,17.7286823 C14.2068066,16.4101268 13.1346657,15.3391706 11.8137408,15.3391706 C10.4987393,15.3391706 9.42659843,16.4101268 9.42659843,17.7286823 C9.42659843,18.4264624 9.726324,19.0555307 10.2073065,19.4938645 L9.6493194,20.6062847 L6.21136051,15.9125586 C6.17937398,15.8485856 6.13909466,15.7917207 6.08696847,15.7431485 L3.41550144,12.0943155 C3.60149715,12.145257 3.80881721,12.1772435 4.04930848,12.1772435 C4.92479146,12.1772435 5.39629651,11.7685269 5.74222483,11.469986 C6.03484229,11.2152785 6.21372988,11.0612693 6.62718531,11.0612693 L6.6366628,11.0612693 C7.04656417,11.0636387 7.22071301,11.2164632 7.51688453,11.469986 C7.86162816,11.7685269 8.33550258,12.1772435 9.20980088,12.1772435 C10.0840992,12.1772435 10.5567889,11.7685269 10.9015326,11.4688013 C11.1977041,11.2152785 11.3730376,11.0612693 11.7876777,11.0612693 C12.2035025,11.0612693 12.3823901,11.2152785 12.6761922,11.469986 C13.0209359,11.7685269 13.4936256,12.1772435 14.3679239,12.1772435 C15.2434069,12.1772435 15.7160966,11.7685269 16.062025,11.469986 C16.3558271,11.2164632 16.5311606,11.0636387 16.9493548,11.0612693 C17.3651796,11.0612693 17.5416978,11.2152785 17.8355,11.469986 C18.1802436,11.7685269 18.6529333,12.1772435 19.5284163,12.1772435 C19.8601284,12.1772435 20.1337909,12.1191939 20.3648047,12.0291578 L14.1594192,20.499663 Z M17.3012066,19.8551938 C17.3012066,20.5103252 16.7692825,21.0446186 16.1117818,21.0446186 L15.2907943,21.0446186 L17.3012066,18.2985163 L17.3012066,19.8551938 Z M13.0529224,21.0446186 L10.809127,21.0446186 L11.3007717,20.0625138 C11.4654431,20.0992391 11.639592,20.1193788 11.8137408,20.1193788 C12.0660789,20.1193788 12.3077549,20.0802841 12.5352146,20.0080183 L13.0529224,21.0446186 Z M11.8137408,18.8861206 C11.1775644,18.8861206 10.6586719,18.3672281 10.6586719,17.7286823 C10.6586719,17.0913213 11.1775644,16.5724288 11.8137408,16.5724288 C12.454656,16.5724288 12.9723638,17.0913213 12.9723638,17.7286823 C12.9723638,18.3672281 12.454656,18.8861206 11.8137408,18.8861206 L11.8137408,18.8861206 Z M13.6642204,30.3076787 C13.6642204,30.5991115 13.4296526,30.8360487 13.1382198,30.8360487 L13.1145261,30.8360487 C12.824278,30.8360487 12.5873408,30.5991115 12.5873408,30.3076787 C12.5873408,30.280431 12.5849714,30.2531832 12.5814174,30.2259354 C12.5849714,30.1975029 12.5873408,30.1702552 12.5873408,30.1430074 L12.5873408,26.7500666 C12.5873408,26.4100617 12.3089396,26.1328451 11.9701194,26.1328451 C11.6289298,26.1328451 11.3528979,26.4100617 11.3528979,26.7500666 L11.3528979,30.1430074 C11.3528979,30.1702552 11.3576367,30.1975029 11.3611907,30.2259354 C11.3576367,30.2531832 11.3528979,30.280431 11.3528979,30.3076787 C11.3528979,30.5991115 11.1159607,30.8360487 10.824528,30.8360487 L10.8020189,30.8360487 C10.5129555,30.8360487 10.2724643,30.5991115 10.2724643,30.3076787 L10.2724643,22.2778767 L13.6642204,22.2778767 L13.6642204,30.3076787 Z M7.46475834,21.0446186 C6.80962696,21.0446186 6.27533355,20.5103252 6.27533355,19.8551938 L6.27533355,18.0888269 L8.43975495,21.0446186 L7.46475834,21.0446186 Z M2.14551801,9.92160132 C2.56252749,6.14126816 5.14158901,3.04094478 8.59376414,1.83730376 C8.26916016,2.24009702 7.96588054,2.708048 7.68629463,3.23641798 C6.74920797,5.01937047 6.17226587,7.3686029 6.0419504,9.89672291 C5.52542729,10.0270384 5.19371519,10.3125477 4.93663832,10.5352687 C4.64283618,10.7887915 4.46394859,10.9439854 4.04930848,10.9439854 C3.63229899,10.9439854 3.45815014,10.7887915 3.16197863,10.5352687 C2.91793331,10.3255793 2.61228431,10.0602096 2.14551801,9.92160132 L2.14551801,9.92160132 Z M11.1728257,9.90501572 C10.6717035,10.0377006 10.3482842,10.3161018 10.0935767,10.5352687 C9.8021439,10.7887915 9.624441,10.9439854 9.20980088,10.9439854 C8.79279139,10.9439854 8.61627317,10.7887915 8.32365572,10.5352687 C8.07605634,10.3220252 7.75856048,10.0495474 7.27520857,9.9144932 C7.51096109,5.55484857 9.16122875,2.00671387 11.1728257,1.39423118 L11.1728257,9.90501572 Z M12.4048991,1.39423118 C14.416496,2.00552918 16.0643943,5.55484857 16.3025162,9.9144932 C15.820349,10.0495474 15.5052225,10.3220252 15.2588078,10.5352687 C14.9614516,10.7887915 14.7837487,10.9439854 14.3679239,10.9439854 C13.9544685,10.9439854 13.7767656,10.7887915 13.4829634,10.5364534 C13.2270713,10.3161018 12.9048366,10.0377006 12.4048991,9.9062004 L12.4048991,1.39423118 Z M11.1728257,0.083968418 C5.63915715,0.391986789 1.16459796,4.81678916 0.868426451,10.4120613 C0.858948963,10.5802868 0.919367951,10.7449581 1.03546718,10.8669808 C1.06389965,10.9475394 1.09470149,11.0150665 1.14090424,11.0778549 L5.04207538,16.4042033 L5.04207538,19.8551938 C5.04207538,21.190335 6.1272478,22.2778767 7.46475834,22.2778767 L9.03920609,22.2778767 L9.03920609,30.3076787 C9.03920609,31.2791213 9.83176105,32.0704916 10.8020189,32.0704916 C11.2616771,32.0704916 11.662101,31.9093743 11.9701194,31.646374 C12.276953,31.9093743 12.6785616,32.0704916 13.1145261,32.0704916 C14.1096624,32.0704916 14.8998479,31.2791213 14.8998479,30.3076787 L14.8998479,22.2778767 L16.1117818,22.2778767 C17.4492923,22.2778767 18.5344647,21.190335 18.5344647,19.8551938 L18.5344647,16.6494334 L22.5908297,11.0778549 C22.7021902,10.9273998 22.7329921,10.7461428 22.6974515,10.5779174 C22.7081137,10.5234218 22.7116677,10.4689263 22.710483,10.4120613 C22.4131268,4.81678916 17.9385676,0.391986789 12.4048991,0.083968418 L11.1728257,0.083968418 Z" id="Fill-3" fill="#FFFFFF"></path>
                    <polygon id="Fill-5" fill="#FFFFFF" points="9.4761183 25.2962199 14.1011326 25.2962199 14.1011326 23.3983528 9.4761183 23.3983528"></polygon>
                    <path d="M8.74244224,1.44256637 C8.74244224,1.44256637 4.02739179,3.32858655 4.02739179,10.8726673" id="Stroke-7" stroke="#FFFFFF" stroke-linecap="round"></path>
                    <path d="M14.399792,1.44256637 C14.399792,1.44256637 19.5863475,3.42217675 19.5863475,11.3429876" id="Stroke-8" stroke="#FFFFFF" stroke-linecap="round"></path>
                    <path d="M11.1730626,1.39387578 C11.1730626,1.39387578 9.08090704,3.81892811 9.09512327,11.3428692" id="Stroke-9" stroke="#FFFFFF" stroke-linejoin="bevel"></path>
                    <path d="M12.4271712,1.39387578 C12.4271712,1.39387578 14.5193268,3.81892811 14.5027412,11.3428692" id="Stroke-10" stroke="#FFFFFF" stroke-linejoin="bevel"></path>
                </g>
                <path d="M3.80050254,31.1260936 C3.7452512,30.934839 3.71408378,30.7350842 3.71408378,30.5296625 C3.71408378,29.3778847 4.65193976,28.4428621 5.80088417,28.4428621 C6.63673769,28.4428621 7.38900585,28.9401241 7.71909716,29.7093927 C7.7885155,29.8680632 7.92593548,29.9898995 8.08885608,30.0423174 C8.25602679,30.0933187 8.4345311,30.0706514 8.58470139,29.9799826 C8.86520816,29.802895 9.19388277,29.7093927 9.52822417,29.7093927 C10.3867449,29.7093927 11.1050122,30.3185741 11.2764331,31.1260936 L3.80050254,31.1260936 Z M9.52822417,28.5165306 C9.17971576,28.5165306 8.83970755,28.576032 8.51953315,28.6936182 C7.91460188,27.8010966 6.90449415,27.25 5.80088417,27.25 C3.99459055,27.25 2.52263835,28.7219522 2.52263835,30.5296625 C2.52263835,31.0410915 2.63739112,31.5326867 2.86264656,31.9874477 C2.96606572,32.190036 3.17290405,32.3189557 3.39674279,32.3189557 L11.9026148,32.3189557 C12.2114556,32.3189557 12.4664618,32.0837834 12.4962125,31.7763593 C12.5047127,31.6842737 12.5075461,31.5893548 12.5075461,31.4986859 C12.5075461,29.8553129 11.1715972,28.5165306 9.52822417,28.5165306 L9.52822417,28.5165306 Z" id="Fill-11" fill="#FFFFFF"></path>
                <path d="M31.2632756,28.823365 C31.205981,28.6347121 31.176635,28.4376747 31.176635,28.2350475 C31.176635,27.098938 32.1017328,26.176635 33.2336501,26.176635 C34.0609279,26.176635 34.8029625,26.6671325 35.1313583,27.4259363 C35.19564,27.5810509 35.3297932,27.7026272 35.4932923,27.754332 C35.6581889,27.8046395 35.834265,27.7822806 35.980995,27.6914477 C36.2576859,27.5181666 36.5804919,27.4259363 36.9102851,27.4259363 C37.7571269,27.4259363 38.4684181,28.0268306 38.6361096,28.823365 L31.2632756,28.823365 Z M36.9102851,26.2493013 C36.5693125,26.2493013 36.2339296,26.3079933 35.9153158,26.4239799 C35.3214086,25.5435998 34.3222471,25 33.2336501,25 C31.4519285,25 30,26.4519285 30,28.2350475 C30,28.7395193 30.1145892,29.2244271 30.3395752,29.6730017 C30.4387926,29.872834 30.6428172,30 30.8650084,30 L39.2551705,30 C39.5584125,30 39.8113471,29.7666294 39.8392957,29.4647848 C39.8490777,29.3725545 39.8518726,29.2803242 39.8518726,29.1908888 C39.8518726,27.5698714 38.5326998,26.2493013 36.9102851,26.2493013 L36.9102851,26.2493013 Z" id="Fill-12" fill="#FFFFFF"></path>
            </g>
        </g>
    </g>
</svg>