<?xml version="1.0" encoding="UTF-8"?>
<svg width="143px" height="136px" viewBox="0 0 143 136" version="1.1" xmlns="http://www.w3.org/2000/svg" xmlns:xlink="http://www.w3.org/1999/xlink">
    <!-- Generator: Sketch 46.2 (44496) - http://www.bohemiancoding.com/sketch -->
    <title>icon/ico-soldout@1x</title>
    <desc>Created with Sketch.</desc>
    <defs></defs>
    <g id="Symbols" stroke="none" stroke-width="1" fill="none" fill-rule="evenodd">
        <g id="icon/ico-soldout">
            <g>
                <path d="M140.891354,65.5801126 C140.912676,75.0236594 138.987244,84.2988378 135.356001,92.8472617 C128.419752,109.181124 115.2509,122.874373 97.4912879,130.046013 C79.7338079,137.217652 60.7438803,136.51221 44.4022224,129.57927 C35.9456703,125.992385 28.1970293,120.734603 21.6957617,114.038231 L29.6853484,110.813657 L29.7429194,110.790214 C34.98402,115.640927 41.0097932,119.509137 47.5067962,122.266968 C61.9763279,128.407085 78.791348,129.029409 94.5146498,122.68043 C110.237952,116.32932 121.899294,104.206798 128.042341,89.7441689 C130.799356,83.2502653 132.443331,76.281094 132.375098,69.1371606 L140.891354,65.5801126 Z" id="Fill-1" stroke="#FFFFFF" fill="#FFFFFF" stroke-linecap="round" stroke-linejoin="round" transform="translate(81.293645, 100.345545) rotate(0.500000) translate(-81.293645, -100.345545) "></path>
                <path d="M123.98228,21.957785 C117.201749,14.5835009 109.483462,9.3996618 100.429194,5.55835352 C84.0206085,-1.40910309 64.9529074,-2.11569826 47.1227013,5.08943127 C29.2903542,12.2924196 16.0675693,26.0496134 9.10291272,42.459751 C5.4974772,50.9517402 3.56844073,60.154607 3.54488979,69.5309107 L11.5856686,66.3635637 C11.9860347,59.2033993 13.676078,52.1037044 16.4465254,45.5794757 C22.6147319,31.0471684 34.3238334,18.8680371 50.1115303,12.4894098 C65.8992272,6.11078247 82.7831134,6.73815333 97.3119053,12.9048021 C103.835517,15.6733704 110.410804,20.3586839 115.675511,25.2299082 C121.076269,23.1024931 123.98228,21.957785 123.98228,21.957785" id="Fill-4" stroke="#FFFFFF" fill="#FFFFFF" stroke-linecap="round" stroke-linejoin="round"></path>
                <text id="SOLD-OUT" transform="translate(72.276825, 66.819096) rotate(-21.500000) translate(-72.276825, -66.819096) " font-family="SFUIDisplay-Heavy, SF UI Display" font-size="25" font-weight="600" letter-spacing="2.03999996" fill="#FFFFFF">
                    <tspan x="2.77682523" y="75.8190963">SOLD OU</tspan>
                    <tspan x="126.0412" y="75.8190963">T</tspan>
                </text>
                <path d="M0.5,78.5 L130.5,26.5" id="Path-3" stroke="#FFFFFF" stroke-width="2" stroke-linecap="round" stroke-linejoin="round"></path>
                <path d="M12.5,109.5 L142.5,57.5" id="Path-3-Copy" stroke="#FFFFFF" stroke-width="2" stroke-linecap="round" stroke-linejoin="round"></path>
                <g id="star" transform="translate(59.146065, 32.867506) rotate(-21.500000) translate(-59.146065, -32.867506) translate(36.646065, 28.367506)" fill="#FFFFFF">
                    <polygon id="Page-1-Copy" points="4.64739009 0.000923525378 3.20911317 2.8957558 0 3.35583935 2.3245391 5.61259955 1.77590061 8.79456426 4.64739009 7.2917366 7.51887957 8.79456426 6.97024108 5.61259955 9.28971583 3.35583935 6.07891454 2.8957558 4.64907821 0.000923525378"></polygon>
                    <polygon id="Page-1-Copy-3" points="22.3696123 0.000923525378 20.9313354 2.8957558 17.7222222 3.35583935 20.0467613 5.61259955 19.4981228 8.79456426 22.3696123 7.2917366 25.2411018 8.79456426 24.6924633 5.61259955 27.011938 3.35583935 23.8011368 2.8957558 22.3713004 0.000923525378"></polygon>
                    <polygon id="Page-1-Copy-4" points="40.0918345 0.000923525378 38.6535576 2.8957558 35.4444444 3.35583935 37.7689835 5.61259955 37.2203451 8.79456426 40.0918345 7.2917366 42.963324 8.79456426 42.4146855 5.61259955 44.7341603 3.35583935 41.523359 2.8957558 40.0935227 0.000923525378"></polygon>
                </g>
            </g>
        </g>
    </g>
</svg>