<?xml version="1.0" encoding="UTF-8"?>
<svg width="28px" height="18px" viewBox="0 0 28 18" version="1.1" xmlns="http://www.w3.org/2000/svg" xmlns:xlink="http://www.w3.org/1999/xlink">
    <!-- Generator: Sketch 46.2 (44496) - http://www.bohemiancoding.com/sketch -->
    <title>Write/icons/ico-video@1x</title>
    <desc>Created with Sketch.</desc>
    <defs></defs>
    <g id="위킨" stroke="none" stroke-width="1" fill="none" fill-rule="evenodd">
        <g id="612_소통_작성하기_위킨찾기" transform="translate(-10.000000, -584.000000)" stroke="#333333" fill="#6F9DDD">
            <g id="답글-달기-액션" transform="translate(0.000000, 520.000000)">
                <g id="Component/write">
                    <g id="video" transform="translate(0.000000, 48.000000)">
                        <g id="Group-2" transform="translate(10.000000, 16.000000)">
                            <g id="Write/icons/ico-video">
                                <g transform="translate(1.000000, 0.850000)">
                                    <path d="M20,13.5525246 C20,14.5881628 19.3200791,15.4274997 18.4794673,15.4274997 L1.5210153,15.4274997 C0.680403416,15.4274997 0,14.5881628 0,13.5525246 L0,1.87497509 C0,0.839931735 0.680403416,0 1.5210153,0 L18.4794673,0 C19.3200791,0 20,0.839931735 20,1.87497509 L20,13.5525246 Z" id="Stroke-1" stroke-width="1.7"></path>
                                    <path d="M25.5220681,3.4 C25.4169819,3.4 25.320723,3.42988823 25.2416982,3.47827871 L20,6.01486458 L20,7.385464 L20,9.28335636 L25.2391761,11.8199422 C25.3186213,11.869756 25.4161412,11.9 25.5220681,11.9 C25.7856242,11.9 26,11.7181799 26,11.4950856 L26,3.80527021 C26,3.58146427 25.7856242,3.4 25.5220681,3.4 Z" id="Stroke-3" stroke-width="1.7"></path>
                                </g>
                            </g>
                        </g>
                    </g>
                </g>
            </g>
        </g>
    </g>
</svg>