<?xml version="1.0" encoding="UTF-8"?>
<svg width="31px" height="38px" viewBox="0 0 31 38" version="1.1" xmlns="http://www.w3.org/2000/svg" xmlns:xlink="http://www.w3.org/1999/xlink">
    <!-- Generator: Sketch 46.2 (44496) - http://www.bohemiancoding.com/sketch -->
    <title>icon/myinfo-interest@1x</title>
    <desc>Created with Sketch.</desc>
    <defs></defs>
    <g id="Symbols" stroke="none" stroke-width="1" fill="none" fill-rule="evenodd">
        <g id="icon/myinfo-interest" stroke="#333333">
            <g>
                <path d="M32.4897517,4.58490566 L-0.923160767,4.58490566 C-1.43964989,4.58490566 -1.86792453,5.02165244 -1.86792453,5.56893121 L-1.86792453,31.8524041 C-1.86792453,32.4000753 -1.43925372,32.8375745 -0.923160767,32.8375745 L32.5697317,32.8375745 L22.9357688,18.1208944 L32.4897517,4.58490566 Z" id="Page-1" stroke-width="2" transform="translate(15.775825, 18.711240) rotate(90.000000) translate(-15.775825, -18.711240) "></path>
                <path d="M19.8963646,7.88679245 C17.955904,7.88679245 16.3595358,9.33173153 16.1552914,11.1871801 C16.1475527,11.1866364 16.1400905,11.1847334 16.1320755,11.1847334 C16.1240605,11.1847334 16.1165982,11.1866364 16.1088596,11.1871801 C15.9046151,9.33173153 14.308247,7.88679245 12.3683391,7.88679245 C10.2888596,7.88679245 8.60377358,9.5451421 8.60377358,11.5898057 C8.60377358,12.4923828 8.93377074,13.3201984 9.48017306,13.9628768 L16.1320755,20.6269956 L22.7842543,13.9628768 C23.330933,13.3201984 23.6603774,12.4923828 23.6603774,11.5898057 C23.6603774,9.5451421 21.975015,7.88679245 19.8963646,7.88679245 M19.8963646,8.70237425 C21.5145667,8.70237425 22.8312388,9.99778999 22.8312388,11.5898057 C22.8312388,12.2547767 22.5960398,12.9020768 22.1682043,13.4158933 L16.1320755,19.4628886 L10.096223,13.4158933 C9.66838752,12.901533 9.43291216,12.254233 9.43291216,11.5898057 C9.43291216,9.99778999 10.7495842,8.70237425 12.3683391,8.70237425 C13.8693563,8.70237425 15.1230138,9.80830316 15.2844195,11.2747192 C15.3302985,11.6909378 15.6879336,12.0027619 16.1080305,12.0027619 C16.1160455,12.0027619 16.1240605,12.00249 16.1320755,12.00249 C16.1400905,12.00249 16.1478291,12.0027619 16.1558441,12.0027619 C16.575941,12.0027619 16.9338525,11.6909378 16.9794551,11.2749911 C17.1411371,9.80830316 18.395071,8.70237425 19.8963646,8.70237425" id="Fill-1" fill="#333333"></path>
            </g>
        </g>
    </g>
</svg>