<?xml version="1.0" encoding="UTF-8"?>
<svg width="22px" height="22px" viewBox="0 0 22 22" version="1.1" xmlns="http://www.w3.org/2000/svg" xmlns:xlink="http://www.w3.org/1999/xlink">
    <!-- Generator: Sketch 46.2 (44496) - http://www.bohemiancoding.com/sketch -->
    <title>icon/ico-camera@1x</title>
    <desc>Created with Sketch.</desc>
    <defs></defs>
    <g id="위킨" stroke="none" stroke-width="1" fill="none" fill-rule="evenodd">
        <g id="508_프로필" transform="translate(-24.000000, -140.000000)">
            <g id="group-1" transform="translate(0.000000, 65.000000)">
                <g id="신청자정보" transform="translate(10.000000, 20.000000)">
                    <g id="profile">
                        <g id="icon/ico-camera" transform="translate(14.000000, 55.000000)">
                            <circle id="bg" fill="#DDDDDD" cx="11" cy="11" r="11"></circle>
                            <g id="Page-1" transform="translate(4.500000, 5.000000)">
                                <path d="M9.00645455,1.463 L9.00645455,0.618545455 C9.00645455,0.276818182 8.729,0 8.38727273,0 L5.03872727,0 C4.69636364,0 4.41954545,0.276818182 4.41954545,0.618545455 L4.41954545,1.463 L3.26836364,1.463 L3.26836364,1.15118182 C3.26836364,0.981272727 3.12963636,0.841909091 2.95845455,0.841909091 L2.07645455,0.841909091 C1.90463636,0.841909091 1.76590909,0.981272727 1.76590909,1.15118182 L1.76590909,1.46554545 C0.788454545,1.48018182 0,2.27563636 0,3.25627273 L0,9.04081818 C0,10.031 0.803090909,10.8334545 1.79327273,10.8334545 L11.6670909,10.8334545 C12.6572727,10.8334545 13.4597273,10.031 13.4597273,9.04081818 L13.4597273,3.25627273 C13.4597273,2.26609091 12.6572727,1.463 11.6670909,1.463 L9.00645455,1.463 Z" id="Path" fill="#777777"></path>
                                <path d="M8.96814017,8.03623865 C7.7705038,9.23323865 5.82895835,9.23387502 4.63132199,8.03560229 C3.43368562,6.83860229 3.43432199,4.89578411 4.63132199,3.69878411 C5.82895835,2.50051138 7.77114017,2.50051138 8.96814017,3.69814774 C10.1664129,4.89578411 10.1664129,6.83796592 8.96814017,8.03623865 Z M6.81306051,4.48000285 C6.0402714,4.48000285 5.41333262,5.10736391 5.41333262,5.88054696 C5.41333262,6.65209768 6.0402714,7.28000285 6.81306051,7.28000285 C7.58639385,7.28000285 8.21333262,6.65209768 8.21333262,5.88054696 C8.21333262,5.10736391 7.58639385,4.48000285 6.81306051,4.48000285 Z" id="Combined-Shape" fill="#DDDDDD"></path>
                            </g>
                        </g>
                    </g>
                </g>
            </g>
        </g>
    </g>
</svg>