<?xml version="1.0" encoding="UTF-8"?>
<svg width="20px" height="20px" viewBox="0 0 20 20" version="1.1" xmlns="http://www.w3.org/2000/svg" xmlns:xlink="http://www.w3.org/1999/xlink">
    <!-- Generator: Sketch 46.2 (44496) - http://www.bohemiancoding.com/sketch -->
    <title>icon/ico-setting@1x</title>
    <desc>Created with Sketch.</desc>
    <defs></defs>
    <g id="Symbols" stroke="none" stroke-width="1" fill="none" fill-rule="evenodd" stroke-linecap="round">
        <g id="icon/ico-setting" stroke="#999999" stroke-width="1.5">
            <g id="icon/con-setting" transform="translate(1.000000, 1.000000)">
                <path d="M10.0671382,17.9865818 L8.02102909,17.9865818 C7.66037455,17.9865818 7.35142909,17.7250909 7.29219273,17.3683636 L6.96557455,15.4109455 C6.64713818,15.3068727 6.33721091,15.1785818 6.03742909,15.0267273 L4.40859273,16.1676 C4.11502909,16.3728 3.71542909,16.3381091 3.46113818,16.0848 L2.01459273,14.6369455 C1.75866545,14.3810182 1.72561091,13.9781455 1.93604727,13.6842545 L3.08412,12.0783273 C2.93062909,11.7756 2.80070182,11.4633818 2.69532,11.1423273 L0.746738182,10.7973818 C0.393283636,10.7345455 0.136374545,10.4275636 0.136374545,10.0688727 L0.136374545,8.02210909 C0.136374545,7.66112727 0.398192727,7.35250909 0.754592727,7.29327273 L2.70055636,6.96861818 C2.80626545,6.64789091 2.93652,6.33469091 3.08968364,6.0336 L1.95339273,4.40770909 C1.74786545,4.11381818 1.78321091,3.71487273 2.03652,3.46123636 L3.48339273,2.01436364 C3.73932,1.75941818 4.14186545,1.72538182 4.43641091,1.93614545 L6.04921091,3.0888 C6.34670182,2.93956364 6.65532,2.81258182 6.97277455,2.70949091 L7.29186545,0.756654545 C7.34979273,0.398945455 7.65939273,0.136472727 8.02102909,0.136472727 L10.0671382,0.136472727 C10.4264836,0.136472727 10.7334655,0.394036364 10.7963018,0.747818182 L11.1405927,2.718 C11.4583745,2.8224 11.7669927,2.95101818 12.0648109,3.10156364 L13.6818655,1.93843636 C13.9760836,1.72701818 14.3799382,1.75974545 14.6358655,2.016 L16.0833927,3.4632 C16.3370291,3.71650909 16.3723745,4.11643636 16.1658655,4.41065455 L15.0112473,6.05650909 C15.1598291,6.3504 15.2861564,6.6564 15.3899018,6.97025455 L17.3646655,7.29261818 C17.7223745,7.35087273 17.98452,7.66014545 17.98452,8.02210909 L17.98452,10.0688727 C17.98452,10.4282182 17.7269564,10.7355273 17.3731745,10.7973818 L15.39252,11.1442909 C15.2907382,11.4584727 15.1640836,11.7641455 15.0158291,12.0593455 L16.1835382,13.6822909 C16.3956109,13.9761818 16.3622291,14.3806909 16.1066291,14.6369455 L14.6597564,16.0848 C14.4057927,16.3381091 14.0061927,16.3737818 13.7116473,16.1672727 L12.0723382,15.0162545 C11.7738655,15.1684364 11.4645927,15.2977091 11.1455018,15.4037455 L10.79532,17.3762182 C10.7324836,17.7290182 10.4264836,17.9865818 10.0671382,17.9865818" id="Stroke-1"></path>
                <path d="M8.98209818,12.3184473 C7.18635273,12.3184473 5.72671636,10.8575018 5.72671636,9.06273818 C5.72671636,7.26764727 7.18635273,5.80670182 8.98209818,5.80670182 C10.7778436,5.80670182 12.23748,7.26764727 12.23748,9.06273818 C12.23748,10.8575018 10.7778436,12.3184473 8.98209818,12.3184473" id="Stroke-3"></path>
            </g>
        </g>
    </g>
</svg>