<?xml version="1.0" encoding="UTF-8"?>
<svg width="44px" height="44px" viewBox="0 0 44 44" version="1.1" xmlns="http://www.w3.org/2000/svg" xmlns:xlink="http://www.w3.org/1999/xlink">
    <!-- Generator: Sketch 46.2 (44496) - http://www.bohemiancoding.com/sketch -->
    <title>icon/ico-cate-production</title>
    <desc>Created with Sketch.</desc>
    <defs></defs>
    <g id="Symbols" stroke="none" stroke-width="1" fill="none" fill-rule="evenodd">
        <g id="icon/ico-cate-production">
            <g transform="translate(1.000000, 1.000000)">
                <path d="M21,42 C32.598,42 42,32.598 42,21 C42,9.401 32.598,0 21,0 C9.402,0 0,9.401 0,21 C0,32.598 9.402,42 21,42 Z" id="Stroke-1" stroke="#FFFFFF" stroke-width="2"></path>
                <g id="Group-6" transform="translate(7.000000, 12.000000)">
                    <polygon id="Stroke-3" stroke="#FFFFFF" stroke-linecap="round" stroke-linejoin="round" points="3.6773692 1.0405 4.5427144 2.2905 5.4068 3.5405 3.6773692 3.5405 1.9429 3.5405 2.8095048 2.2905"></polygon>
                    <polygon id="Stroke-5" stroke="#FFFFFF" stroke-width="1.5" stroke-linecap="round" stroke-linejoin="round" points="7.3721 5.8042 7.3761 17.3872 1.7811 17.3772 0.0321 17.3732 0.0131 5.9112 1.9781 8.0882 3.5751 5.5522 5.4261 8.0312"></polygon>
                    <polygon id="Stroke-7" stroke="#FFFFFF" stroke-width="1.5" stroke-linecap="round" stroke-linejoin="round" points="7.4072 5.6235 5.2452 7.7935 3.5932 5.4325 2.1002 7.8545 0.0122 5.6235 3.7352 0.6105"></polygon>
                    <path d="M1.9619,8.1841 L1.9429,17.0391" id="Stroke-9" stroke="#FFFFFF" stroke-linecap="round" stroke-linejoin="round"></path>
                    <path d="M5.4248,8.1841 L5.4068,17.0391" id="Stroke-11" stroke="#FFFFFF" stroke-linecap="round" stroke-linejoin="round"></path>
                    <path d="M18.3789,16.4063 C18.3789,16.9093 17.9479,17.3643 17.4169,17.3643 L11.6469,17.3643 C11.1139,17.3643 10.6849,16.9093 10.6849,16.4063 L10.6849,1.8053 C10.6849,1.3023 11.1139,0.8933 11.6469,0.8933 L17.4169,0.8933 C17.9479,0.8933 18.3789,1.3023 18.3789,1.8053 L18.3789,16.4063 Z" id="Stroke-13" stroke="#FFFFFF" stroke-width="1.5" stroke-linecap="round"></path>
                    <path d="M13.0557,4.0713 L11.0557,4.0713" id="Stroke-15" stroke="#FFFFFF" stroke-linecap="round"></path>
                    <path d="M13.0557,7.0713 L11.0557,7.0713" id="Stroke-17" stroke="#FFFFFF" stroke-linecap="round"></path>
                    <path d="M13.0557,10.0713 L11.0557,10.0713" id="Stroke-19" stroke="#FFFFFF" stroke-linecap="round"></path>
                    <path d="M13.0557,13.0713 L11.0557,13.0713" id="Stroke-21" stroke="#FFFFFF" stroke-linecap="round"></path>
                    <path d="M23.6865,17.1631 L23.6865,15.3521" id="Fill-23" fill="#000000"></path>
                    <path d="M23.6865,17.1631 L23.6865,15.3521" id="Stroke-25" stroke="#FFFFFF" stroke-linecap="round" stroke-linejoin="round"></path>
                    <path d="M25.7715,17.1631 L25.7715,15.3521" id="Fill-27" fill="#000000"></path>
                    <path d="M25.7715,17.1631 L25.7715,15.3521" id="Stroke-29" stroke="#FFFFFF" stroke-linecap="round" stroke-linejoin="round"></path>
                    <path d="M23.0361,12.14 L23.0361,1.908 C23.0361,1.406 23.7621069,1 24.659232,1 L24.876868,1 C25.7723318,1 26.5,1.406 26.5,1.908 L26.5,12.14" id="Stroke-31" stroke="#FFFFFF" stroke-width="1.5"></path>
                    <path d="M27.8545,17.2617 L27.8545,15.4697 C27.8545,13.1647 27.2585,11.2977 24.7295,11.2977 C22.2035,11.2977 21.6025,13.1647 21.6025,15.4697 L21.6025,17.2617 L27.8545,17.2617 Z" id="Stroke-33" stroke="#FFFFFF" stroke-width="1.5"></path>
                    <path d="M23.9502,13.6963 C23.9502,13.8463 23.8292,13.9673 23.6792,13.9673 C23.5292,13.9673 23.4082,13.8463 23.4082,13.6963 C23.4082,13.5463 23.5292,13.4253 23.6792,13.4253 C23.8292,13.4253 23.9502,13.5463 23.9502,13.6963" id="Fill-35" fill="#FFFFFF"></path>
                    <path d="M25.9502,13.6963 C25.9502,13.8463 25.8292,13.9673 25.6792,13.9673 C25.5292,13.9673 25.4082,13.8463 25.4082,13.6963 C25.4082,13.5463 25.5292,13.4253 25.6792,13.4253 C25.8292,13.4253 25.9502,13.5463 25.9502,13.6963" id="Fill-37" fill="#FFFFFF"></path>
                    <path d="M24.9502,13.6963 C24.9502,13.8463 24.8292,13.9673 24.6792,13.9673 C24.5292,13.9673 24.4082,13.8463 24.4082,13.6963 C24.4082,13.5463 24.5292,13.4253 24.6792,13.4253 C24.8292,13.4253 24.9502,13.5463 24.9502,13.6963" id="Fill-39" fill="#FFFFFF"></path>
                </g>
            </g>
        </g>
    </g>
</svg>