<?xml version="1.0" encoding="UTF-8"?>
<svg width="48px" height="32px" viewBox="0 0 48 32" version="1.1" xmlns="http://www.w3.org/2000/svg" xmlns:xlink="http://www.w3.org/1999/xlink">
    <!-- Generator: Sketch 46.2 (44496) - http://www.bohemiancoding.com/sketch -->
    <title>Overrides/Tab Bar/Icons/Unselected/3@1x</title>
    <desc>Created with Sketch.</desc>
    <defs></defs>
    <g id="Symbols" stroke="none" stroke-width="1" fill="none" fill-rule="evenodd" stroke-linecap="round">
        <g id="Overrides/Tab-Bar/Icons/Unselected/3" stroke="#333333">
            <g id="icon/Tab-Bar/news" transform="translate(12.000000, 4.000000)">
                <path d="M24.0469564,22.621337 C24.0469564,23.731685 22.9612543,24.6325549 21.6222447,24.6325549 L2.42540198,24.6325549 C1.08570214,24.6325549 0,23.731685 0,22.621337 L0,2.01007326 C0,0.900297619 1.08570214,0 2.42540198,0 L21.6222447,0 C22.9612543,0 24.0469564,0.900297619 24.0469564,2.01007326 L24.0469564,22.621337 Z" id="Stroke-1" stroke-width="1.5"></path>
                <g id="Group-5" transform="translate(4.251701, 5.357143)">
                    <g id="Group-6">
                        <path d="M2,0 L13.1846453,0 L13.1846453,8.8817842e-15 C14.2892148,9.65993286e-15 15.1846453,0.8954305 15.1846453,2 L15.1846453,2.76190476 L15.1846453,2.76190476 C15.1846453,3.86647426 14.2892148,4.76190476 13.1846453,4.76190476 L2,4.76190476 L2,4.76190476 C0.8954305,4.76190476 -6.97015661e-15,3.86647426 -7.10542736e-15,2.76190476 L-4.59751278e-15,2 L-3.10862447e-15,2 C-2.26284043e-15,0.8954305 0.8954305,2.42335217e-15 2,2.22044605e-15 Z" id="Stroke-5"></path>
                        <path d="M0,8.92857143 L15.1846453,8.92857143" id="Stroke-9"></path>
                        <path d="M0,13.6904762 L8.50340136,13.6904762" id="Stroke-11"></path>
                    </g>
                </g>
            </g>
        </g>
    </g>
</svg>