<?xml version="1.0" encoding="UTF-8"?>
<svg width="48px" height="32px" viewBox="0 0 48 32" version="1.1" xmlns="http://www.w3.org/2000/svg" xmlns:xlink="http://www.w3.org/1999/xlink">
    <!-- Generator: Sketch 46.2 (44496) - http://www.bohemiancoding.com/sketch -->
    <title>Overrides/Tab Bar/Icons/Unselected/4@1x</title>
    <desc>Created with Sketch.</desc>
    <defs></defs>
    <g id="Symbols" stroke="none" stroke-width="1" fill="none" fill-rule="evenodd">
        <g id="Overrides/Tab-Bar/Icons/Unselected/4">
            <g id="icon/Tab-Bar/commun" transform="translate(12.000000, 5.000000)">
                <path d="M23.2969956,-8.70414851e-14 L1.6128867,-8.70414851e-14 C0.721663999,-8.70414851e-14 0,0.736155955 0,1.64364232 L0,16.9235853 C0,17.8310716 0.721663999,18.5667569 1.6128867,18.5667569 L17.2931392,18.5667569 L20.6986356,22.0352564 L20.6986356,18.5667569 L23.2969956,18.5667569 C24.1882183,18.5667569 24.9094203,17.8310716 24.9094203,16.9235853 L24.9094203,1.64364232 C24.9094203,0.736155955 24.1882183,-8.70414851e-14 23.2969956,-8.70414851e-14 Z" id="Page-1" stroke="#333333" stroke-width="1.5" stroke-linecap="round" stroke-linejoin="round"></path>
                <g id="..." transform="translate(5.008013, 7.011218)" fill="#333333">
                    <path d="M2.70927785,2.08478669 C2.70927785,2.78019404 2.14873082,3.34641896 1.45629036,3.34641896 C0.763357772,3.34641896 0.20182646,2.78019404 0.20182646,2.08478669 C0.20182646,1.38838944 0.763357772,0.823649375 1.45629036,0.823649375 C2.14873082,0.823649375 2.70927785,1.38838944 2.70927785,2.08478669" id="Fill-3"></path>
                    <path d="M8.77425894,2.08478669 C8.77425894,2.95441709 8.07345211,3.66021843 7.20679424,3.66021843 C6.3406285,3.66021843 5.63834525,2.95441709 5.63834525,2.08478669 C5.63834525,1.21317648 6.3406285,0.506880191 7.20679424,0.506880191 C8.07345211,0.506880191 8.77425894,1.21317648 8.77425894,2.08478669" id="Fill-5"></path>
                    <path d="M12.9585777,3.97599771 C11.9181945,3.97599771 11.0771279,3.12814519 11.0771279,2.08478669 C11.0771279,1.03994333 11.9181945,0.194565573 12.9585777,0.194565573 C13.9965001,0.194565573 14.838551,1.03994333 14.838551,2.08478669 C14.838551,3.12814519 13.9965001,3.97599771 12.9585777,3.97599771 Z" id="Fill-7"></path>
                </g>
            </g>
        </g>
    </g>
</svg>