<svg xmlns="http://www.w3.org/2000/svg" width="143" height="136" viewBox="0 0 143 136">
    <g fill="none" fill-rule="evenodd">
        <path fill="#FFF" stroke="#FFF" stroke-linecap="round" stroke-linejoin="round" d="M141.192 66.102a69.376 69.376 0 0 1-5.773 27.217c-7.078 16.273-20.366 29.85-38.188 36.867-17.819 7.017-36.802 6.146-53.082-.93a69.446 69.446 0 0 1-22.57-15.738l8.017-3.155.058-.023a61.573 61.573 0 0 0 17.663 11.631c14.415 6.266 31.224 7.035 47.002.824 15.778-6.214 27.545-18.234 33.814-32.642 2.814-6.47 4.518-13.425 4.512-20.569l8.547-3.482zM123.982 21.958c-6.78-7.374-14.499-12.558-23.553-16.4-16.408-6.967-35.476-7.674-53.306-.469-17.833 7.203-31.055 20.96-38.02 37.37a69.747 69.747 0 0 0-5.558 27.072l8.04-3.167c.401-7.16 2.091-14.26 4.862-20.785 6.168-14.532 17.877-26.711 33.665-33.09 15.787-6.378 32.671-5.75 47.2.416 6.524 2.768 13.099 7.454 18.364 12.325l8.306-3.272"/>
        <text fill="#FFF" font-family="SFUIDisplay-Heavy, SF UI Display" font-size="25" font-weight="600" letter-spacing="2.04" transform="rotate(-21.5 72.277 66.82)">
            <tspan x="2.777" y="75.819">SOLD OU</tspan> <tspan x="126.041" y="75.819">T</tspan>
        </text>
        <path stroke="#FFF" stroke-linecap="round" stroke-linejoin="round" stroke-width="2" d="M.5 78.5l130-52M12.5 109.5l130-52"/>
        <g fill="#FFF">
            <path d="M40.887 35.224l-.277 3.221-2.818 1.604 2.99 1.248.656 3.162 2.12-2.451 3.223.346-1.676-2.76 1.33-2.95-3.155.75-2.392-2.17zM57.376 28.73l-.277 3.22-2.818 1.604 2.99 1.248.656 3.161 2.12-2.45 3.223.346-1.676-2.76 1.33-2.95-3.155.749-2.392-2.17zM73.865 22.234l-.277 3.22-2.818 1.605 2.99 1.248.656 3.161 2.121-2.45 3.222.345-1.676-2.76 1.33-2.949-3.155.749-2.392-2.17z"/>
        </g>
    </g>
</svg>
