<?xml version="1.0" encoding="UTF-8"?>
<svg width="121px" height="113px" viewBox="0 0 121 113" version="1.1" xmlns="http://www.w3.org/2000/svg" xmlns:xlink="http://www.w3.org/1999/xlink">
    <!-- Generator: Sketch 46.2 (44496) - http://www.bohemiancoding.com/sketch -->
    <title>logo-1@1x</title>
    <desc>Created with Sketch.</desc>
    <defs>
        <polygon id="path-1" points="79.8188233 0.95594761 79.8188233 75.9038537 0.614700391 75.9038537 0.614700391 0.95594761 79.8188233 0.95594761"></polygon>
        <polygon id="path-3" points="-40.1785714 37.0414475 -40.1785714 75.9038537 14.4833409 75.9038537 14.4833409 37.0414475"></polygon>
    </defs>
    <g id="위킨" stroke="none" stroke-width="1" fill="none" fill-rule="evenodd">
        <g id="로그인-첫화면" transform="translate(-127.000000, -100.000000)">
            <g id="logo-1" transform="translate(128.000000, 100.000000)">
                <g id="logo">
                    <g id="Group-6" transform="translate(39.642857, 0.000000)">
                        <mask id="mask-2" fill="white">
                            <use xlink:href="#path-1"></use>
                        </mask>
                        <g id="Clip-2"></g>
                        <path d="M9.77707555,20.222393 C9.77707555,14.6701106 14.2751997,10.152282 19.806663,10.152282 C25.3350782,10.152282 29.8347264,14.6701106 29.8347264,20.222393 C29.8347264,23.3395265 25.0576921,29.7155972 19.8086952,34.996004 C14.555634,29.7155972 9.77707555,23.3395265 9.77707555,20.222393 M78.4773621,38.3896039 C76.6916261,36.592062 73.7912657,36.592062 72.0004494,38.3896039 L47.5945441,62.8925887 L26.286624,41.5001062 C31.1998111,36.5752292 38.9976096,27.5951712 38.9976096,20.222393 C38.9976096,9.5993491 30.3889904,0.95594761 19.806663,0.95594761 C9.22484368,0.95594761 0.614700391,9.5993491 0.614700391,20.222393 C0.614700391,29.3039581 12.4523773,40.8303637 16.1483174,44.2040703 C16.310888,44.446361 16.4978441,44.6779399 16.711218,44.8926859 L47.5945441,75.9038537 L78.4773621,44.8926859 C80.2661463,43.0966743 80.2661463,40.1861256 78.4773621,38.3896039" id="Fill-1" fill="#FEFEFE" mask="url(#mask-2)"></path>
                        <mask id="mask-4" fill="white">
                            <use xlink:href="#path-3"></use>
                        </mask>
                        <g id="Clip-5"></g>
                        <path d="M14.4833409,53.378981 L8.00490404,46.8728385 L-7.95241251,62.8925887 L-32.3583178,38.3896039 C-34.1476101,36.592062 -37.0479705,36.592062 -38.8372627,38.3896039 C-40.6260469,40.1861256 -40.6260469,43.0966743 -38.8372627,44.8926859 L-7.95241251,75.9038537 L14.4833409,53.378981 Z" id="Fill-4" fill="#FEFEFE" mask="url(#mask-4)"></path>
                    </g>
                    <g id="text" transform="translate(0.000000, 93.214286)" stroke="#FFFFFF" fill="#FEFEFE">
                        <path d="M41.22398,15.7301025 L41.22398,11.6666609 L54.290442,11.6666609 C55.2001398,11.6666609 55.9421137,10.9482186 55.9421137,10.0530525 C55.9421137,9.15688225 55.2001398,8.43191318 54.290442,8.43191318 L41.22398,8.43191318 L41.22398,4.37098187 L54.290442,4.37098187 C55.2001398,4.37098187 55.9421137,3.64551075 55.9421137,2.75586726 C55.9421137,1.85768883 55.2001398,1.13271976 54.290442,1.13271976 L39.5721548,1.13271976 C38.6645024,1.13271976 37.9255966,1.85768883 37.9255966,2.75586726 C37.9255966,2.78546674 37.9264146,2.81488449 37.9280295,2.84409982 C37.9265162,2.87245809 37.92575,2.90100748 37.92575,2.9297293 L37.92575,10.0306989 C37.9256479,10.038138 37.9255966,10.0455893 37.9255966,10.0530525 C37.9255966,10.0605072 37.9256479,10.0679498 37.92575,10.0753797 L37.92575,17.324494 C37.9256479,17.3318921 37.9255966,17.3393019 37.9255966,17.3467233 C37.9255966,17.3541488 37.9256479,17.3615627 37.92575,17.3689648 L37.92575,17.3799092 C37.92575,18.273067 38.6641445,19.0015505 39.5707742,19.0015505 C39.6938868,19.0015505 39.8138043,18.988357 39.9291571,18.963344 L54.290442,18.963344 C55.2001398,18.963344 55.9421137,18.238375 55.9421137,17.3467233 C55.9421137,16.4555736 55.2001398,15.7301025 54.290442,15.7301025 L41.22398,15.7301025 Z M32.173637,1.40091815 C32.9340197,1.88941877 33.1452087,2.89252694 32.6476617,3.6405906 L23.2009176,17.7724669 C22.8956395,18.2263256 22.3750817,18.4994442 21.8223086,18.4994442 C21.2695355,18.4994442 20.7500004,18.2263256 20.4436996,17.7724669 L17.043199,12.6871402 L13.6432097,17.7724669 C13.3415112,18.2263256 12.8189079,18.4994442 12.2697143,18.4994442 C11.7118276,18.4994442 11.195872,18.2263256 10.8880372,17.7724669 L1.22294511,3.31827055 C0.722330055,2.57321924 0.935053102,1.5686049 1.69390166,1.07658988 C2.45223887,0.585076918 3.47903665,0.793932272 3.98016306,1.54199592 L12.2697143,13.9357538 L15.0734654,9.74157683 L10.7786075,3.31827055 C10.2800379,2.57321924 10.4907155,1.5686049 11.2546776,1.07658988 C12.0114808,0.585076918 13.0352104,0.793932272 13.5327574,1.54199592 L17.0447331,6.79249905 L20.3368267,1.86783036 C20.8338623,1.11826054 21.8555466,0.910409297 22.6195087,1.40091815 C23.3798913,1.88941877 23.5875008,2.89252694 23.0919993,3.6405906 L19.014978,9.73806244 L21.8223086,13.9357538 L29.8904438,1.86783036 C30.3879907,1.11826054 31.4117204,0.910409297 32.173637,1.40091815 Z M85.9036946,1.71319707 C86.3674922,2.47481623 86.1133495,3.46989151 85.3309787,3.9267626 L75.2977121,9.79479478 L85.0528024,15.4866053 C85.8331278,15.9500031 86.0928954,16.942066 85.6255183,17.7097099 C85.3161495,18.2147783 84.7679785,18.4994442 84.2090692,18.4994442 C83.9206658,18.4994442 83.6307284,18.4236337 83.3709608,18.2720127 L73.2824681,12.380886 L73.2824681,16.7738772 C73.2824681,17.6670351 72.5471418,18.3940124 71.6343758,18.3940124 C70.724678,18.3940124 69.9862836,17.6670351 69.9862836,16.7738772 L69.9862836,2.32168911 C69.9862836,1.42903329 70.724678,0.701553942 71.6343758,0.701553942 C72.5471418,0.701553942 73.2824681,1.42903329 73.2824681,2.32168911 L73.2824681,7.20267892 L83.646069,1.14587363 C84.4279285,0.690508707 85.4363175,0.942038834 85.9036946,1.71319707 Z M93.3018545,0.701754765 C94.2115523,0.701754765 94.9484127,1.42873206 94.9484127,2.32188993 L94.9484127,16.774078 C94.9484127,17.6672359 94.2115523,18.3937111 93.3018545,18.3937111 C92.3921566,18.3937111 91.6517168,17.6672359 91.6517168,16.774078 L91.6517168,2.32188993 C91.6517168,1.42873206 92.3921566,0.701754765 93.3018545,0.701754765 Z M115.871565,0.920651243 C116.782797,0.920651243 117.519657,1.64612237 117.519657,2.53526379 L117.519657,16.7178477 C117.519657,17.3745372 117.117734,17.9649552 116.503087,18.2149792 C115.88844,18.4665093 115.17817,18.32995 114.707213,17.864544 L102.851994,6.22939288 L102.851994,16.774078 C102.851994,17.6672359 102.12127,18.3937111 101.20697,18.3937111 C100.295738,18.3937111 99.5588779,17.6672359 99.5588779,16.774078 L99.5588779,2.32188993 C99.5588779,1.66570256 99.9608017,1.0767907 100.580562,0.828272913 C101.19163,0.575236617 101.900365,0.713302056 102.37439,1.17720193 L114.226541,12.812353 L114.226541,2.53526379 C114.226541,1.64612237 114.960333,0.920651243 115.871565,0.920651243 Z M62.9035266,4.59610384 C63.8147584,4.59610384 64.5551983,5.32308114 64.5551983,6.22075752 C64.5551983,7.11592362 63.8147584,7.84239886 62.9035266,7.84239886 C61.9887152,7.84239886 61.2503208,7.11592362 61.2503208,6.22075752 C61.2503208,5.32308114 61.9887152,4.59610384 62.9035266,4.59610384 Z M62.9035266,11.9276799 C63.8147584,11.9276799 64.5551983,12.6561633 64.5551983,13.5523336 C64.5551983,14.4454914 63.8147584,15.1754811 62.9035266,15.1754811 C61.9887152,15.1754811 61.2503208,14.4454914 61.2503208,13.5523336 C61.2503208,12.6561633 61.9887152,11.9276799 62.9035266,11.9276799 Z" id="Combined-Shape"></path>
                    </g>
                </g>
            </g>
        </g>
    </g>
</svg>