<?xml version="1.0" encoding="UTF-8"?>
<svg width="48px" height="34px" viewBox="0 0 48 34" version="1.1" xmlns="http://www.w3.org/2000/svg" xmlns:xlink="http://www.w3.org/1999/xlink">
    <!-- Generator: Sketch 46.2 (44496) - http://www.bohemiancoding.com/sketch -->
    <title>Overrides/Tab Bar/Icons/Active/2@1x</title>
    <desc>Created with Sketch.</desc>
    <defs></defs>
    <g id="Symbols" stroke="none" stroke-width="1" fill="none" fill-rule="evenodd">
        <g id="Overrides/Tab-Bar/Icons/Active/2" stroke="#333333">
            <g id="icon/Tab-Bar/search/active" transform="translate(11.000000, 4.000000)">
                <g id="icon/search" stroke-width="1.5">
                    <path d="M18.7424391,18.743287 L24.44,24.44" id="Stroke-1" stroke-linecap="round"></path>
                    <path d="M21.9173783,11.0763957 C21.9173783,17.0643087 17.0632913,21.9183957 11.0765087,21.9183957 C5.0902913,21.9183957 0.236204348,17.0643087 0.236204348,11.0763957 C0.236204348,5.08961304 5.0902913,0.235526087 11.0765087,0.235526087 C17.0632913,0.235526087 21.9173783,5.08961304 21.9173783,11.0763957 Z" id="Stroke-3" fill="#00C58E"></path>
                </g>
                <g id="Page-1" transform="translate(3.391304, 5.652174)">
                    <path d="M6.09790178,2.46568434 C6.09790178,1.47554985 6.91903251,0.677238237 7.92286619,0.677238237 C8.92632287,0.677238237 9.74725893,1.47564164 9.74725893,2.46568434 C9.74725893,3.0260996 9.13904588,3.86657534 8.2719522,4.71216154 L7.92297085,5.05248672 L7.57388749,4.71226616 C6.70647976,3.86688084 6.09790178,3.02621354 6.09790178,2.46568434 Z M7.91943287,5.33228892 C7.92097155,5.3350339 7.92261146,5.33801895 7.92452244,5.3414974 L7.9245408,5.34152949 C7.92416333,5.34014598 7.92240056,5.33690431 7.91943287,5.33228892 Z M7.89751938,5.29829347 L11.5926958,8.89338213 L15.3230936,5.26397974 C15.3575379,5.23047255 15.3575379,5.18218936 15.3234189,5.14905874 L15.3225352,5.14819851 C15.2808252,5.10749649 15.2074525,5.10749649 15.1651008,5.14876081 L11.5926508,8.62365776 L8.06104724,5.18756228 L8.43025149,4.82920869 C9.33515076,3.95090381 9.9574745,3.06175164 9.9574745,2.46568434 C9.9574745,1.38582965 9.04703165,0.500031262 7.92286619,0.500031262 C6.79840868,0.500031262 5.88773818,1.38586307 5.88773818,2.46568434 C5.88773818,3.19345999 6.77205113,4.28732104 7.86501326,5.25273071 C7.88008879,5.27376838 7.8902276,5.28791695 7.89751938,5.29829347 Z M7.05682025,5.83861955 C7.05672947,5.83844863 7.05663894,5.83827793 7.05654866,5.83810744 L7.05653034,5.83807541 C7.05633946,5.83794013 7.05618734,5.83783232 7.05682025,5.83861955 Z" id="Stroke-1"></path>
                    <path d="M6.5026934,6.70861933 L6.36399127,6.57365821 L4.25641398,8.62358883 L3.90779582,8.2844687 L0.6840282,5.14853179 C0.641870185,5.10746494 0.568075148,5.10746494 0.525505042,5.14893276 C0.491430429,5.18204915 0.491430429,5.23060518 0.525682095,5.26396179 L4.25646677,8.89341682 L6.5026934,6.70861933 Z" id="Stroke-3"></path>
                </g>
            </g>
        </g>
    </g>
</svg>